<svg viewBox="0 0 330 200" xmlns="http://www.w3.org/2000/svg"><g><g><g><g><g><line x1="61.953125" y1="177" x2="56.953125" y2="177" style="visibility: inherit;" fill="rgb(0, 0, 0)" stroke="rgb(204, 204, 204)" stroke-width="1px"></line><line x1="61.953125" y1="164.35714285714283" x2="56.953125" y2="164.35714285714283" style="visibility: inherit;" fill="rgb(0, 0, 0)" stroke="rgb(204, 204, 204)" stroke-width="1px"></line><line x1="61.953125" y1="151.7142857142857" x2="56.953125" y2="151.7142857142857" style="visibility: inherit;" fill="rgb(0, 0, 0)" stroke="rgb(204, 204, 204)" stroke-width="1px"></line><line x1="61.953125" y1="139.07142857142853" x2="56.953125" y2="139.07142857142853" style="visibility: inherit;" fill="rgb(0, 0, 0)" stroke="rgb(204, 204, 204)" stroke-width="1px"></line><line x1="61.953125" y1="126.42857142857154" x2="56.953125" y2="126.42857142857154" style="visibility: inherit;" fill="rgb(0, 0, 0)" stroke="rgb(204, 204, 204)" stroke-width="1px"></line><line x1="61.953125" y1="113.78571428571439" x2="56.953125" y2="113.78571428571439" style="visibility: inherit;" fill="rgb(0, 0, 0)" stroke="rgb(204, 204, 204)" stroke-width="1px"></line><line x1="61.953125" y1="101.14285714285725" x2="56.953125" y2="101.14285714285725" style="visibility: inherit;" fill="rgb(0, 0, 0)" stroke="rgb(204, 204, 204)" stroke-width="1px"></line><line x1="61.953125" y1="88.50000000000009" x2="56.953125" y2="88.50000000000009" style="visibility: inherit;" fill="rgb(0, 0, 0)" stroke="rgb(204, 204, 204)" stroke-width="1px"></line><line x1="61.953125" y1="75.85714285714295" x2="56.953125" y2="75.85714285714295" style="visibility: inherit;" fill="rgb(0, 0, 0)" stroke="rgb(204, 204, 204)" stroke-width="1px"></line><line x1="61.953125" y1="63.214285714285786" x2="56.953125" y2="63.214285714285786" style="visibility: inherit;" fill="rgb(0, 0, 0)" stroke="rgb(204, 204, 204)" stroke-width="1px"></line><line x1="61.953125" y1="50.571428571428626" x2="56.953125" y2="50.571428571428626" style="visibility: inherit;" fill="rgb(0, 0, 0)" stroke="rgb(204, 204, 204)" stroke-width="1px"></line><line x1="61.953125" y1="37.92857142857147" x2="56.953125" y2="37.92857142857147" style="visibility: inherit;" fill="rgb(0, 0, 0)" stroke="rgb(204, 204, 204)" stroke-width="1px"></line><line x1="61.953125" y1="25.285714285714313" x2="56.953125" y2="25.285714285714313" style="visibility: inherit;" fill="rgb(0, 0, 0)" stroke="rgb(204, 204, 204)" stroke-width="1px"></line><line x1="61.953125" y1="12.642857142857157" x2="56.953125" y2="12.642857142857157" style="visibility: inherit;" fill="rgb(0, 0, 0)" stroke="rgb(204, 204, 204)" stroke-width="1px"></line><line x1="61.953125" y1="0" x2="56.953125" y2="0" style="visibility: inherit;" fill="rgb(0, 0, 0)" stroke="rgb(204, 204, 204)" stroke-width="1px"></line></g><g transform="translate(51.953125, 0)"><text x="0" y="177" dx="0em" dy="0.3em" style="text-anchor: end; visibility: hidden; font-family: Roboto, sans-serif; font-size: 12px; font-weight: 200;" fill="rgb(255, 255, 255)" stroke="none" stroke-width="1px">0.082</text><text x="0" y="164.35714285714283" dx="0em" dy="0.3em" style="text-anchor: end; visibility: inherit; font-family: Roboto, sans-serif; font-size: 12px; font-weight: 200;" fill="rgb(255, 255, 255)" stroke="none" stroke-width="1px">0.083</text><text x="0" y="151.7142857142857" dx="0em" dy="0.3em" style="text-anchor: end; visibility: hidden; font-family: Roboto, sans-serif; font-size: 12px; font-weight: 200;" fill="rgb(255, 255, 255)" stroke="none" stroke-width="1px">0.084</text><text x="0" y="139.07142857142853" dx="0em" dy="0.3em" style="text-anchor: end; visibility: inherit; font-family: Roboto, sans-serif; font-size: 12px; font-weight: 200;" fill="rgb(255, 255, 255)" stroke="none" stroke-width="1px">0.085</text><text x="0" y="126.42857142857154" dx="0em" dy="0.3em" style="text-anchor: end; visibility: hidden; font-family: Roboto, sans-serif; font-size: 12px; font-weight: 200;" fill="rgb(255, 255, 255)" stroke="none" stroke-width="1px">0.086</text><text x="0" y="113.78571428571439" dx="0em" dy="0.3em" style="text-anchor: end; visibility: inherit; font-family: Roboto, sans-serif; font-size: 12px; font-weight: 200;" fill="rgb(255, 255, 255)" stroke="none" stroke-width="1px">0.087</text><text x="0" y="101.14285714285725" dx="0em" dy="0.3em" style="text-anchor: end; visibility: hidden; font-family: Roboto, sans-serif; font-size: 12px; font-weight: 200;" fill="rgb(255, 255, 255)" stroke="none" stroke-width="1px">0.088</text><text x="0" y="88.50000000000009" dx="0em" dy="0.3em" style="text-anchor: end; visibility: inherit; font-family: Roboto, sans-serif; font-size: 12px; font-weight: 200;" fill="rgb(255, 255, 255)" stroke="none" stroke-width="1px">0.089</text><text x="0" y="75.85714285714295" dx="0em" dy="0.3em" style="text-anchor: end; visibility: hidden; font-family: Roboto, sans-serif; font-size: 12px; font-weight: 200;" fill="rgb(255, 255, 255)" stroke="none" stroke-width="1px">0.09</text><text x="0" y="63.214285714285786" dx="0em" dy="0.3em" style="text-anchor: end; visibility: inherit; font-family: Roboto, sans-serif; font-size: 12px; font-weight: 200;" fill="rgb(255, 255, 255)" stroke="none" stroke-width="1px">0.091</text><text x="0" y="50.571428571428626" dx="0em" dy="0.3em" style="text-anchor: end; visibility: hidden; font-family: Roboto, sans-serif; font-size: 12px; font-weight: 200;" fill="rgb(255, 255, 255)" stroke="none" stroke-width="1px">0.092</text><text x="0" y="37.92857142857147" dx="0em" dy="0.3em" style="text-anchor: end; visibility: inherit; font-family: Roboto, sans-serif; font-size: 12px; font-weight: 200;" fill="rgb(255, 255, 255)" stroke="none" stroke-width="1px">0.093</text><text x="0" y="25.285714285714313" dx="0em" dy="0.3em" style="text-anchor: end; visibility: hidden; font-family: Roboto, sans-serif; font-size: 12px; font-weight: 200;" fill="rgb(255, 255, 255)" stroke="none" stroke-width="1px">0.094</text><text x="0" y="12.642857142857157" dx="0em" dy="0.3em" style="text-anchor: end; visibility: inherit; font-family: Roboto, sans-serif; font-size: 12px; font-weight: 200;" fill="rgb(255, 255, 255)" stroke="none" stroke-width="1px">0.095</text><text x="0" y="0" dx="0em" dy="0.3em" style="text-anchor: end; visibility: hidden; font-family: Roboto, sans-serif; font-size: 12px; font-weight: 200;" fill="rgb(255, 255, 255)" stroke="none" stroke-width="1px">0.096</text></g><line x1="61.953125" y1="0" x2="61.953125" y2="177" fill="rgb(0, 0, 0)" stroke="rgb(204, 204, 204)" stroke-width="1px"></line></g></g><g transform="translate(61, 0)" clip-path="url(#clip_0)"><clipPath id="clip_0"><rect width="268" height="177"></rect></clipPath><g><g><g><line x1="0" y1="0" x2="0" y2="177" fill="rgb(0, 0, 0)" stroke="rgb(189, 189, 189)" stroke-width="1px" opacity="0.25"></line><line x1="29.78298611111111" y1="0" x2="29.78298611111111" y2="177" fill="rgb(0, 0, 0)" stroke="rgb(189, 189, 189)" stroke-width="1px" opacity="0.25"></line><line x1="59.56597222222222" y1="0" x2="59.56597222222222" y2="177" fill="rgb(0, 0, 0)" stroke="rgb(189, 189, 189)" stroke-width="1px" opacity="0.25"></line><line x1="89.34895833333333" y1="0" x2="89.34895833333333" y2="177" fill="rgb(0, 0, 0)" stroke="rgb(189, 189, 189)" stroke-width="1px" opacity="0.25"></line><line x1="119.13194444444444" y1="0" x2="119.13194444444444" y2="177" fill="rgb(0, 0, 0)" stroke="rgb(189, 189, 189)" stroke-width="1px" opacity="0.25"></line><line x1="148.91493055555557" y1="0" x2="148.91493055555557" y2="177" fill="rgb(0, 0, 0)" stroke="rgb(189, 189, 189)" stroke-width="1px" opacity="0.25"></line><line x1="178.69791666666666" y1="0" x2="178.69791666666666" y2="177" fill="rgb(0, 0, 0)" stroke="rgb(189, 189, 189)" stroke-width="1px" opacity="0.25"></line><line x1="208.48090277777777" y1="0" x2="208.48090277777777" y2="177" fill="rgb(0, 0, 0)" stroke="rgb(189, 189, 189)" stroke-width="1px" opacity="0.25"></line><line x1="238.26388888888889" y1="0" x2="238.26388888888889" y2="177" fill="rgb(0, 0, 0)" stroke="rgb(189, 189, 189)" stroke-width="1px" opacity="0.25"></line><line x1="268.046875" y1="0" x2="268.046875" y2="177" fill="rgb(0, 0, 0)" stroke="rgb(189, 189, 189)" stroke-width="1px" opacity="0.25"></line></g><g><line x1="0" y1="177" x2="268.046875" y2="177" fill="rgb(0, 0, 0)" stroke="rgb(189, 189, 189)" stroke-width="1px" opacity="0.25"></line><line x1="0" y1="164.35714285714283" x2="268.046875" y2="164.35714285714283" fill="rgb(0, 0, 0)" stroke="rgb(189, 189, 189)" stroke-width="1px" opacity="0.25"></line><line x1="0" y1="151.7142857142857" x2="268.046875" y2="151.7142857142857" fill="rgb(0, 0, 0)" stroke="rgb(189, 189, 189)" stroke-width="1px" opacity="0.25"></line><line x1="0" y1="139.07142857142853" x2="268.046875" y2="139.07142857142853" fill="rgb(0, 0, 0)" stroke="rgb(189, 189, 189)" stroke-width="1px" opacity="0.25"></line><line x1="0" y1="126.42857142857154" x2="268.046875" y2="126.42857142857154" fill="rgb(0, 0, 0)" stroke="rgb(189, 189, 189)" stroke-width="1px" opacity="0.25"></line><line x1="0" y1="113.78571428571439" x2="268.046875" y2="113.78571428571439" fill="rgb(0, 0, 0)" stroke="rgb(189, 189, 189)" stroke-width="1px" opacity="0.25"></line><line x1="0" y1="101.14285714285725" x2="268.046875" y2="101.14285714285725" fill="rgb(0, 0, 0)" stroke="rgb(189, 189, 189)" stroke-width="1px" opacity="0.25"></line><line x1="0" y1="88.50000000000009" x2="268.046875" y2="88.50000000000009" fill="rgb(0, 0, 0)" stroke="rgb(189, 189, 189)" stroke-width="1px" opacity="0.25"></line><line x1="0" y1="75.85714285714295" x2="268.046875" y2="75.85714285714295" fill="rgb(0, 0, 0)" stroke="rgb(189, 189, 189)" stroke-width="1px" opacity="0.25"></line><line x1="0" y1="63.214285714285786" x2="268.046875" y2="63.214285714285786" fill="rgb(0, 0, 0)" stroke="rgb(189, 189, 189)" stroke-width="1px" opacity="0.25"></line><line x1="0" y1="50.571428571428626" x2="268.046875" y2="50.571428571428626" fill="rgb(0, 0, 0)" stroke="rgb(189, 189, 189)" stroke-width="1px" opacity="0.25"></line><line x1="0" y1="37.92857142857147" x2="268.046875" y2="37.92857142857147" fill="rgb(0, 0, 0)" stroke="rgb(189, 189, 189)" stroke-width="1px" opacity="0.25"></line><line x1="0" y1="25.285714285714313" x2="268.046875" y2="25.285714285714313" fill="rgb(0, 0, 0)" stroke="rgb(189, 189, 189)" stroke-width="1px" opacity="0.25"></line><line x1="0" y1="12.642857142857157" x2="268.046875" y2="12.642857142857157" fill="rgb(0, 0, 0)" stroke="rgb(189, 189, 189)" stroke-width="1px" opacity="0.25"></line><line x1="0" y1="0" x2="268.046875" y2="0" fill="rgb(0, 0, 0)" stroke="rgb(189, 189, 189)" stroke-width="1px" opacity="0.25"></line></g></g></g><g><g><line x1="0" y1="1213.7142857142858" x2="268.046875" y2="1213.7142857142858" fill="rgb(0, 0, 0)" stroke="rgb(153, 153, 153)" stroke-width="1.5px"></line></g></g><g><g><line x1="29.78298611111111" y1="0" x2="29.78298611111111" y2="177" fill="rgb(0, 0, 0)" stroke="rgb(153, 153, 153)" stroke-width="1.5px"></line></g></g><g><g><g><g><g><path stroke="rgb(0, 119, 187)" stroke-width="2px" d="M32.76128472222222,247.12348399470963L35.739583333333336,146.31249454365528L38.71788194444444,77.11420979857954L41.69618055555556,35.646465026003945L44.674479166666664,11.487820499676033L47.65277777777778,58.85953977883943L50.631076388888886,97.00345341441167L53.609375,17.692284628891333L56.587673611111114,35.66982324577386L59.56597222222222,50.77720732666693L62.544270833333336,55.05450729464443L65.52256944444444,-2.7546274792347543L68.50086805555556,42.056600936746946L71.47916666666667,15.015037364975871L74.45746527777779,21.993542710155555L77.43576388888889,77.40705784784419L80.4140625,82.43851571858954L83.39236111111111,40.53903885145042L86.37065972222223,35.07828877816493L89.34895833333333,65.85404028274908L92.32725694444444,-2.4895871487927805L95.30555555555556,11.396860011264916L98.28385416666666,33.197520723817426L101.26215277777777,16.148823803044053L104.24045138888889,52.16965613112911L107.21875,56.0884299156993L110.1970486111111,10.364605382206776L113.17534722222223,52.45974756639308L116.15364583333334,79.32498578561956L119.13194444444444,62.3237578493481L122.11024305555556,49.315661419904394L125.08854166666667,60.5496011330691L128.06684027777777,83.91197709601254L131.04513888888889,106.76832396981682L134.0234375,124.5176660617645L137.00173611111111,122.39273915170592L139.98003472222223,133.70557963821335L142.95833333333334,125.82660543339288L145.93663194444443,131.67912223092623L148.91493055555557,146.16235389428965L151.89322916666666,161.21128104527392L154.87152777777777,173.95793762813244L157.84982638888889,159.98592194508575L160.828125,164.1379097194709L163.80642361111111,146.27532148282728L166.78472222222223,136.8661219997352L169.76302083333331,105.86618627974195L172.74131944444446,107.61868699542934L175.71961805555554,110.96210437425317L178.69791666666666,101.84910969717725L181.6762152777778,72.70476484416587L184.65451388888889,63.04066023044144L187.6328125,27.765473322905244L190.61111111111111,46.421608083418285L193.58940972222223,45.52451144037892L196.56770833333331,48.18942856503258L199.54600694444446,41.830459472101175L202.52430555555554,32.761920570979896L205.50260416666669,79.72588445438488L208.48090277777777,55.77795989500983L211.45920138888889,34.65572153186119L214.4375,28.562276598885422L217.41579861111111,25.351985752541907L220.3940972222222,43.169424079121484L223.37239583333334,29.425922797052113L226.35069444444446,37.63216706697415L229.32899305555554,74.7834806800654L232.30729166666669,47.51203580009407L235.28559027777777,16.57058311969232L238.26388888888889,29.21286535117578L241.2421875,21.986907913833605L244.22048611111111,27.573779974822315L247.19878472222223,41.28225707336084L250.17708333333334,70.41466128593405L253.15538194444443,115.36029516489162L256.13368055555554,112.3473385111058L259.1119791666667,82.04776030224525" style="fill: none;" fill="none"></path></g><g><path stroke="rgb(255, 112, 67)" stroke-width="2px" d="M35.739583333333336,260.9480814560162L38.71788194444444,140.24229899235056L41.69618055555556,65.99765131332782L44.674479166666664,28.322193668196906L47.65277777777778,22.990811726764452L50.631076388888886,20.643045773069673L53.609375,19.550561785406924L56.587673611111114,20.81885794008908L59.56597222222222,22.80207165769462L62.544270833333336,21.57121942235105L65.52256944444444,23.019928356070423L68.50086805555556,25.531265176492468L71.47916666666667,30.611893645628694L74.45746527777779,34.217975022418806L77.43576388888889,38.125224236024245L80.4140625,40.68326228349459L83.39236111111111,40.835630989470076L86.37065972222223,37.002558305071524L89.34895833333333,36.89571227114933L92.32725694444444,36.21992288845561L95.30555555555556,40.43796330392183L98.28385416666666,39.33385192305921L101.26215277777777,39.723756141744516L104.24045138888889,43.49064264925804L107.21875,48.65726683299031L110.1970486111111,51.04789924999227L113.17534722222223,49.75140352729814L116.15364583333334,49.30696252958837L119.13194444444444,79.85371402362101L122.11024305555556,54.752856542480004L125.08854166666667,34.28323369445847L128.06684027777777,29.852033728749188L131.04513888888889,56.062507906328726L134.0234375,77.24326665546988L137.00173611111111,89.98001843179631L139.98003472222223,103.28607491801687L142.95833333333334,113.23660969316022L145.93663194444443,121.27612899343836L148.91493055555557,137.15554786849194L151.89322916666666,147.44419488882326L154.87152777777777,151.58337651016956L157.84982638888889,144.11877979614025L160.828125,120.5673526606974L163.80642361111111,106.62986321510643L166.78472222222223,89.73206254081202L169.76302083333331,80.35437783974113L172.74131944444446,64.21930444529112L175.71961805555554,60.677129890237104L178.69791666666666,55.04680637799658L181.6762152777778,49.23897985386929L184.65451388888889,43.88602573562129L187.6328125,42.517869631067185L190.61111111111111,41.730509967233594L193.58940972222223,41.049580517358116L196.56770833333331,41.08367163288825L199.54600694444446,38.24005904575492L202.52430555555554,42.307730209369936L205.50260416666669,44.86573958233256L208.48090277777777,41.43472514905805L211.45920138888889,35.86454162470607L214.4375,39.66562541919498L217.41579861111111,39.67583557723497L220.3940972222222,36.94023699361069L223.37239583333334,40.181164332445626L226.35069444444446,37.323991201393476L229.32899305555554,38.55498974957726L232.30729166666669,42.79103424895716L235.28559027777777,40.72761396956638L238.26388888888889,45.71456467828187L241.2421875,45.0343477590146L244.22048611111111,41.765428393592366L247.19878472222223,41.03338042383291L250.17708333333334,42.587389929289735L253.15538194444443,43.24323433828061L256.13368055555554,45.253079730563414L259.1119791666667,46.0643407811482" style="fill: none;" fill="none"></path></g></g></g></g><g opacity="0.2"><g><g><g><path stroke="rgb(0, 119, 187)" stroke-width="2px" d="M32.76128472222222,210.9116045364312L35.739583333333336,49.53394467064316L38.71788194444444,-4.262973061629671L44.674479166666664,-21.93228199226512L47.65277777777778,126.60185629555161L50.631076388888886,152.61764567664696L53.609375,-99.2762839283262L56.587673611111114,62.36437291758404L59.56597222222222,73.30126058629585L62.544270833333336,61.44718036907063L65.52256944444444,-89.27957278490067L68.50086805555556,109.18565369929591L71.47916666666667,-25.51552164980341L74.45746527777779,32.45637894528256L77.43576388888889,160.50388141189308L80.4140625,89.98442503809933L83.39236111111111,-22.303793485675524L86.37065972222223,26.887662802423787L89.34895833333333,112.01597972427099L92.32725694444444,-105.00277941993303L95.30555555555556,32.22625658767567L98.28385416666666,65.89825354303636L101.26215277777777,-9.424100403274785L104.24045138888889,106.20075101086076L107.21875,61.96658056548666L110.1970486111111,-58.22106122119083L113.17534722222223,115.6024220670973L116.15364583333334,119.62282826645038L119.13194444444444,36.821921582732905L122.11024305555556,29.80351936391424L125.08854166666667,77.40050936170991L128.06684027777777,118.95553936702869L131.04513888888889,141.0528432982309L134.0234375,151.14167874200007L137.00173611111111,119.20534881949429L139.98003472222223,150.674840262958L142.95833333333334,114.0081441700459L145.93663194444443,140.457897407668L148.91493055555557,167.88720136029383L151.89322916666666,183.78467175364497L154.87152777777777,193.0779224932194L157.84982638888889,139.02789842656685L160.828125,170.3658913799695L163.80642361111111,119.48143913064688L166.78472222222223,122.75232277597705L169.76302083333331,59.36628270149235L172.74131944444446,110.2474380689008L175.71961805555554,115.97723044242183L178.69791666666666,88.17961768167363L181.6762152777778,28.988247564860778L184.65451388888889,48.544503309897046L187.6328125,-25.14730703830715L190.61111111111111,74.40581022415846L193.58940972222223,44.178866475820584L196.56770833333331,52.18680425201146L199.54600694444446,32.2920058327062L202.52430555555554,19.159112219299626L205.50260416666669,150.17183027948656L208.48090277777777,19.856073055948567L211.45920138888889,2.972363987139327L214.4375,19.422109199421776L217.41579861111111,20.536549483026814L220.3940972222222,69.89558156899048L223.37239583333334,8.810670873948531L226.35069444444446,49.94153347185682L229.32899305555554,130.51045109970232L232.30729166666669,6.6048684801374495L235.28559027777777,-29.841595900910214L238.26388888888889,48.1762886984008L241.2421875,11.147971757820708L244.22048611111111,35.95408806630547L247.19878472222223,61.844972721168L250.17708333333334,114.11326760479386L253.15538194444443,182.7787459833282L256.13368055555554,107.82790353042743L259.1119791666667,36.598392988954295" style="fill: none;" fill="none"></path></g><g><path stroke="rgb(255, 112, 67)" stroke-width="2px" d="M32.76128472222222,219.31319001317027L35.739583333333336,160.3260381817818L38.71788194444444,-1.7077011849198966L44.674479166666664,-23.796527419771444L47.65277777777778,15.366850248404937L50.631076388888886,17.219980474029292L53.609375,17.939360107694377L56.587673611111114,22.7021299174854L59.56597222222222,25.758904631648768L62.544270833333336,19.731639312846347L65.52256944444444,25.188261470624404L68.50086805555556,29.293350436857803L71.47916666666667,38.22686426128663L74.45746527777779,39.62455379962923L77.43576388888889,43.984444639512496L80.4140625,44.519669869116406L83.39236111111111,41.064160836594475L86.37065972222223,31.253299636500252L89.34895833333333,36.73544907995636L92.32725694444444,35.206261051552666L95.30555555555556,46.764940649271054L98.28385416666666,37.67769793101723L101.26215277777777,40.308609698499986L104.24045138888889,49.140956346477815L107.21875,56.407189888613594L110.1970486111111,54.6338442053114L113.17534722222223,47.80666113751278L116.15364583333334,48.6403012786593L119.13194444444444,125.6738311350346L122.11024305555556,17.101575314998648L125.08854166666667,3.578801866088617L128.06684027777777,23.20523409758298L131.04513888888889,95.37821804625652L134.0234375,109.0144042330129L137.00173611111111,109.08514589922773L139.98003472222223,123.24515952382772L142.95833333333334,128.16241180045267L145.93663194444443,133.3354079169887L148.91493055555557,160.9746761492321L151.89322916666666,162.8771654069424L154.87152777777777,157.79214893920084L157.84982638888889,132.92188472832956L160.828125,85.2402119636536L163.80642361111111,85.72362904889245L166.78472222222223,64.38536153095113L169.76302083333331,66.28785078866143L172.74131944444446,40.01669435415952L175.71961805555554,55.363868057727856L178.69791666666666,46.60132110970364L181.6762152777778,40.527240067720435L184.65451388888889,35.856594558273066L187.6328125,40.4656354742391L190.61111111111111,40.54947047148435L193.58940972222223,40.02818634254594L196.56770833333331,41.13480830618317L199.54600694444446,33.974640165056535L202.52430555555554,48.40923695479123L205.50260416666669,48.70275364177571L208.48090277777777,36.288203499146896L211.45920138888889,27.509266338178115L214.4375,45.36725111092843L217.41579861111111,39.691150814294836L220.3940972222222,32.836839118174176L223.37239583333334,45.04255534069882L226.35069444444446,33.038231504814995L229.32899305555554,40.40148757185258L232.30729166666669,49.14510099802701L235.28559027777777,37.632483550480465L238.26388888888889,53.194990741355106L241.2421875,44.014022380113644L244.22048611111111,36.86204934545929L247.19878472222223,39.93530846919335L250.17708333333334,44.918404187474955L253.15538194444443,44.22700095176701L256.13368055555554,48.26784781898774L259.1119791666667,47.28123235702519" style="fill: none;" fill="none"></path></g></g></g></g></g></g><g transform="translate(61, 177)" clip-path="url(#clip_1)"><clipPath id="clip_1"><rect width="268" height="23"></rect></clipPath><g><g><line x1="0" y1="0" x2="0" y2="5" style="visibility: inherit;" fill="rgb(0, 0, 0)" stroke="rgb(204, 204, 204)" stroke-width="1px"></line><line x1="29.78298611111111" y1="0" x2="29.78298611111111" y2="5" style="visibility: inherit;" fill="rgb(0, 0, 0)" stroke="rgb(204, 204, 204)" stroke-width="1px"></line><line x1="59.56597222222222" y1="0" x2="59.56597222222222" y2="5" style="visibility: inherit;" fill="rgb(0, 0, 0)" stroke="rgb(204, 204, 204)" stroke-width="1px"></line><line x1="89.34895833333333" y1="0" x2="89.34895833333333" y2="5" style="visibility: inherit;" fill="rgb(0, 0, 0)" stroke="rgb(204, 204, 204)" stroke-width="1px"></line><line x1="119.13194444444444" y1="0" x2="119.13194444444444" y2="5" style="visibility: inherit;" fill="rgb(0, 0, 0)" stroke="rgb(204, 204, 204)" stroke-width="1px"></line><line x1="148.91493055555557" y1="0" x2="148.91493055555557" y2="5" style="visibility: inherit;" fill="rgb(0, 0, 0)" stroke="rgb(204, 204, 204)" stroke-width="1px"></line><line x1="178.69791666666666" y1="0" x2="178.69791666666666" y2="5" style="visibility: inherit;" fill="rgb(0, 0, 0)" stroke="rgb(204, 204, 204)" stroke-width="1px"></line><line x1="208.48090277777777" y1="0" x2="208.48090277777777" y2="5" style="visibility: inherit;" fill="rgb(0, 0, 0)" stroke="rgb(204, 204, 204)" stroke-width="1px"></line><line x1="238.26388888888889" y1="0" x2="238.26388888888889" y2="5" style="visibility: inherit;" fill="rgb(0, 0, 0)" stroke="rgb(204, 204, 204)" stroke-width="1px"></line><line x1="268.046875" y1="0" x2="268.046875" y2="5" style="visibility: inherit;" fill="rgb(0, 0, 0)" stroke="rgb(204, 204, 204)" stroke-width="1px"></line></g><g transform="translate(0, 8)"><text x="0" y="0" dx="0em" dy="0.95em" style="text-anchor: middle; visibility: hidden; font-family: Roboto, sans-serif; font-size: 12px; font-weight: 200;" fill="rgb(255, 255, 255)" stroke="none" stroke-width="1px">-10</text><text x="29.78298611111111" y="0" dx="0em" dy="0.95em" style="text-anchor: middle; visibility: inherit; font-family: Roboto, sans-serif; font-size: 12px; font-weight: 200;" fill="rgb(255, 255, 255)" stroke="none" stroke-width="1px">0</text><text x="59.56597222222222" y="0" dx="0em" dy="0.95em" style="text-anchor: middle; visibility: inherit; font-family: Roboto, sans-serif; font-size: 12px; font-weight: 200;" fill="rgb(255, 255, 255)" stroke="none" stroke-width="1px">10</text><text x="89.34895833333333" y="0" dx="0em" dy="0.95em" style="text-anchor: middle; visibility: inherit; font-family: Roboto, sans-serif; font-size: 12px; font-weight: 200;" fill="rgb(255, 255, 255)" stroke="none" stroke-width="1px">20</text><text x="119.13194444444444" y="0" dx="0em" dy="0.95em" style="text-anchor: middle; visibility: inherit; font-family: Roboto, sans-serif; font-size: 12px; font-weight: 200;" fill="rgb(255, 255, 255)" stroke="none" stroke-width="1px">30</text><text x="148.91493055555557" y="0" dx="0em" dy="0.95em" style="text-anchor: middle; visibility: inherit; font-family: Roboto, sans-serif; font-size: 12px; font-weight: 200;" fill="rgb(255, 255, 255)" stroke="none" stroke-width="1px">40</text><text x="178.69791666666666" y="0" dx="0em" dy="0.95em" style="text-anchor: middle; visibility: inherit; font-family: Roboto, sans-serif; font-size: 12px; font-weight: 200;" fill="rgb(255, 255, 255)" stroke="none" stroke-width="1px">50</text><text x="208.48090277777777" y="0" dx="0em" dy="0.95em" style="text-anchor: middle; visibility: inherit; font-family: Roboto, sans-serif; font-size: 12px; font-weight: 200;" fill="rgb(255, 255, 255)" stroke="none" stroke-width="1px">60</text><text x="238.26388888888889" y="0" dx="0em" dy="0.95em" style="text-anchor: middle; visibility: inherit; font-family: Roboto, sans-serif; font-size: 12px; font-weight: 200;" fill="rgb(255, 255, 255)" stroke="none" stroke-width="1px">70</text><text x="268.046875" y="0" dx="0em" dy="0.95em" style="text-anchor: middle; visibility: hidden; font-family: Roboto, sans-serif; font-size: 12px; font-weight: 200;" fill="rgb(255, 255, 255)" stroke="none" stroke-width="1px">80</text></g><line x1="0" y1="0" x2="268.046875" y2="0" fill="rgb(0, 0, 0)" stroke="rgb(204, 204, 204)" stroke-width="1px"></line></g></g></g></g></svg>