<svg viewBox="0 0 330 200" xmlns="http://www.w3.org/2000/svg"><g><g><g><g><g><line x1="60" y1="177" x2="55" y2="177" style="visibility: inherit;" fill="rgb(0, 0, 0)" stroke="rgb(204, 204, 204)" stroke-width="1px"></line><line x1="60" y1="163.3846153846154" x2="55" y2="163.3846153846154" style="visibility: inherit;" fill="rgb(0, 0, 0)" stroke="rgb(204, 204, 204)" stroke-width="1px"></line><line x1="60" y1="149.76923076923077" x2="55" y2="149.76923076923077" style="visibility: inherit;" fill="rgb(0, 0, 0)" stroke="rgb(204, 204, 204)" stroke-width="1px"></line><line x1="60" y1="136.15384615384613" x2="55" y2="136.15384615384613" style="visibility: inherit;" fill="rgb(0, 0, 0)" stroke="rgb(204, 204, 204)" stroke-width="1px"></line><line x1="60" y1="122.53846153846153" x2="55" y2="122.53846153846153" style="visibility: inherit;" fill="rgb(0, 0, 0)" stroke="rgb(204, 204, 204)" stroke-width="1px"></line><line x1="60" y1="108.92307692307693" x2="55" y2="108.92307692307693" style="visibility: inherit;" fill="rgb(0, 0, 0)" stroke="rgb(204, 204, 204)" stroke-width="1px"></line><line x1="60" y1="95.3076923076923" x2="55" y2="95.3076923076923" style="visibility: inherit;" fill="rgb(0, 0, 0)" stroke="rgb(204, 204, 204)" stroke-width="1px"></line><line x1="60" y1="81.6923076923077" x2="55" y2="81.6923076923077" style="visibility: inherit;" fill="rgb(0, 0, 0)" stroke="rgb(204, 204, 204)" stroke-width="1px"></line><line x1="60" y1="68.07692307692307" x2="55" y2="68.07692307692307" style="visibility: inherit;" fill="rgb(0, 0, 0)" stroke="rgb(204, 204, 204)" stroke-width="1px"></line><line x1="60" y1="54.46153846153847" x2="55" y2="54.46153846153847" style="visibility: inherit;" fill="rgb(0, 0, 0)" stroke="rgb(204, 204, 204)" stroke-width="1px"></line><line x1="60" y1="40.84615384615384" x2="55" y2="40.84615384615384" style="visibility: inherit;" fill="rgb(0, 0, 0)" stroke="rgb(204, 204, 204)" stroke-width="1px"></line><line x1="60" y1="27.230769230769234" x2="55" y2="27.230769230769234" style="visibility: inherit;" fill="rgb(0, 0, 0)" stroke="rgb(204, 204, 204)" stroke-width="1px"></line><line x1="60" y1="13.615384615384606" x2="55" y2="13.615384615384606" style="visibility: inherit;" fill="rgb(0, 0, 0)" stroke="rgb(204, 204, 204)" stroke-width="1px"></line><line x1="60" y1="0" x2="55" y2="0" style="visibility: inherit;" fill="rgb(0, 0, 0)" stroke="rgb(204, 204, 204)" stroke-width="1px"></line></g><g transform="translate(50, 0)"><text x="0" y="177" dx="0em" dy="0.3em" style="text-anchor: end; visibility: hidden; font-family: Roboto, sans-serif; font-size: 12px; font-weight: 200;" fill="rgb(255, 255, 255)" stroke="none" stroke-width="1px">0.157</text><text x="0" y="163.3846153846154" dx="0em" dy="0.3em" style="text-anchor: end; visibility: inherit; font-family: Roboto, sans-serif; font-size: 12px; font-weight: 200;" fill="rgb(255, 255, 255)" stroke="none" stroke-width="1px">0.157</text><text x="0" y="149.76923076923077" dx="0em" dy="0.3em" style="text-anchor: end; visibility: hidden; font-family: Roboto, sans-serif; font-size: 12px; font-weight: 200;" fill="rgb(255, 255, 255)" stroke="none" stroke-width="1px">0.158</text><text x="0" y="136.15384615384613" dx="0em" dy="0.3em" style="text-anchor: end; visibility: inherit; font-family: Roboto, sans-serif; font-size: 12px; font-weight: 200;" fill="rgb(255, 255, 255)" stroke="none" stroke-width="1px">0.158</text><text x="0" y="122.53846153846153" dx="0em" dy="0.3em" style="text-anchor: end; visibility: hidden; font-family: Roboto, sans-serif; font-size: 12px; font-weight: 200;" fill="rgb(255, 255, 255)" stroke="none" stroke-width="1px">0.159</text><text x="0" y="108.92307692307693" dx="0em" dy="0.3em" style="text-anchor: end; visibility: inherit; font-family: Roboto, sans-serif; font-size: 12px; font-weight: 200;" fill="rgb(255, 255, 255)" stroke="none" stroke-width="1px">0.159</text><text x="0" y="95.3076923076923" dx="0em" dy="0.3em" style="text-anchor: end; visibility: hidden; font-family: Roboto, sans-serif; font-size: 12px; font-weight: 200;" fill="rgb(255, 255, 255)" stroke="none" stroke-width="1px">0.16</text><text x="0" y="81.6923076923077" dx="0em" dy="0.3em" style="text-anchor: end; visibility: inherit; font-family: Roboto, sans-serif; font-size: 12px; font-weight: 200;" fill="rgb(255, 255, 255)" stroke="none" stroke-width="1px">0.16</text><text x="0" y="68.07692307692307" dx="0em" dy="0.3em" style="text-anchor: end; visibility: hidden; font-family: Roboto, sans-serif; font-size: 12px; font-weight: 200;" fill="rgb(255, 255, 255)" stroke="none" stroke-width="1px">0.161</text><text x="0" y="54.46153846153847" dx="0em" dy="0.3em" style="text-anchor: end; visibility: inherit; font-family: Roboto, sans-serif; font-size: 12px; font-weight: 200;" fill="rgb(255, 255, 255)" stroke="none" stroke-width="1px">0.161</text><text x="0" y="40.84615384615384" dx="0em" dy="0.3em" style="text-anchor: end; visibility: hidden; font-family: Roboto, sans-serif; font-size: 12px; font-weight: 200;" fill="rgb(255, 255, 255)" stroke="none" stroke-width="1px">0.162</text><text x="0" y="27.230769230769234" dx="0em" dy="0.3em" style="text-anchor: end; visibility: inherit; font-family: Roboto, sans-serif; font-size: 12px; font-weight: 200;" fill="rgb(255, 255, 255)" stroke="none" stroke-width="1px">0.162</text><text x="0" y="13.615384615384606" dx="0em" dy="0.3em" style="text-anchor: end; visibility: hidden; font-family: Roboto, sans-serif; font-size: 12px; font-weight: 200;" fill="rgb(255, 255, 255)" stroke="none" stroke-width="1px">0.163</text><text x="0" y="0" dx="0em" dy="0.3em" style="text-anchor: end; visibility: hidden; font-family: Roboto, sans-serif; font-size: 12px; font-weight: 200;" fill="rgb(255, 255, 255)" stroke="none" stroke-width="1px">0.163</text></g><line x1="60" y1="0" x2="60" y2="177" fill="rgb(0, 0, 0)" stroke="rgb(204, 204, 204)" stroke-width="1px"></line></g></g><g transform="translate(60, 0)" clip-path="url(#clip_0)"><clipPath id="clip_0"><rect width="270" height="177"></rect></clipPath><g><g><g><line x1="0" y1="0" x2="0" y2="177" fill="rgb(0, 0, 0)" stroke="rgb(189, 189, 189)" stroke-width="1px" opacity="0.25"></line><line x1="30" y1="0" x2="30" y2="177" fill="rgb(0, 0, 0)" stroke="rgb(189, 189, 189)" stroke-width="1px" opacity="0.25"></line><line x1="60" y1="0" x2="60" y2="177" fill="rgb(0, 0, 0)" stroke="rgb(189, 189, 189)" stroke-width="1px" opacity="0.25"></line><line x1="90" y1="0" x2="90" y2="177" fill="rgb(0, 0, 0)" stroke="rgb(189, 189, 189)" stroke-width="1px" opacity="0.25"></line><line x1="120" y1="0" x2="120" y2="177" fill="rgb(0, 0, 0)" stroke="rgb(189, 189, 189)" stroke-width="1px" opacity="0.25"></line><line x1="150" y1="0" x2="150" y2="177" fill="rgb(0, 0, 0)" stroke="rgb(189, 189, 189)" stroke-width="1px" opacity="0.25"></line><line x1="180" y1="0" x2="180" y2="177" fill="rgb(0, 0, 0)" stroke="rgb(189, 189, 189)" stroke-width="1px" opacity="0.25"></line><line x1="210" y1="0" x2="210" y2="177" fill="rgb(0, 0, 0)" stroke="rgb(189, 189, 189)" stroke-width="1px" opacity="0.25"></line><line x1="240" y1="0" x2="240" y2="177" fill="rgb(0, 0, 0)" stroke="rgb(189, 189, 189)" stroke-width="1px" opacity="0.25"></line><line x1="270" y1="0" x2="270" y2="177" fill="rgb(0, 0, 0)" stroke="rgb(189, 189, 189)" stroke-width="1px" opacity="0.25"></line></g><g><line x1="0" y1="177" x2="270" y2="177" fill="rgb(0, 0, 0)" stroke="rgb(189, 189, 189)" stroke-width="1px" opacity="0.25"></line><line x1="0" y1="163.3846153846154" x2="270" y2="163.3846153846154" fill="rgb(0, 0, 0)" stroke="rgb(189, 189, 189)" stroke-width="1px" opacity="0.25"></line><line x1="0" y1="149.76923076923077" x2="270" y2="149.76923076923077" fill="rgb(0, 0, 0)" stroke="rgb(189, 189, 189)" stroke-width="1px" opacity="0.25"></line><line x1="0" y1="136.15384615384613" x2="270" y2="136.15384615384613" fill="rgb(0, 0, 0)" stroke="rgb(189, 189, 189)" stroke-width="1px" opacity="0.25"></line><line x1="0" y1="122.53846153846153" x2="270" y2="122.53846153846153" fill="rgb(0, 0, 0)" stroke="rgb(189, 189, 189)" stroke-width="1px" opacity="0.25"></line><line x1="0" y1="108.92307692307693" x2="270" y2="108.92307692307693" fill="rgb(0, 0, 0)" stroke="rgb(189, 189, 189)" stroke-width="1px" opacity="0.25"></line><line x1="0" y1="95.3076923076923" x2="270" y2="95.3076923076923" fill="rgb(0, 0, 0)" stroke="rgb(189, 189, 189)" stroke-width="1px" opacity="0.25"></line><line x1="0" y1="81.6923076923077" x2="270" y2="81.6923076923077" fill="rgb(0, 0, 0)" stroke="rgb(189, 189, 189)" stroke-width="1px" opacity="0.25"></line><line x1="0" y1="68.07692307692307" x2="270" y2="68.07692307692307" fill="rgb(0, 0, 0)" stroke="rgb(189, 189, 189)" stroke-width="1px" opacity="0.25"></line><line x1="0" y1="54.46153846153847" x2="270" y2="54.46153846153847" fill="rgb(0, 0, 0)" stroke="rgb(189, 189, 189)" stroke-width="1px" opacity="0.25"></line><line x1="0" y1="40.84615384615384" x2="270" y2="40.84615384615384" fill="rgb(0, 0, 0)" stroke="rgb(189, 189, 189)" stroke-width="1px" opacity="0.25"></line><line x1="0" y1="27.230769230769234" x2="270" y2="27.230769230769234" fill="rgb(0, 0, 0)" stroke="rgb(189, 189, 189)" stroke-width="1px" opacity="0.25"></line><line x1="0" y1="13.615384615384606" x2="270" y2="13.615384615384606" fill="rgb(0, 0, 0)" stroke="rgb(189, 189, 189)" stroke-width="1px" opacity="0.25"></line><line x1="0" y1="0" x2="270" y2="0" fill="rgb(0, 0, 0)" stroke="rgb(189, 189, 189)" stroke-width="1px" opacity="0.25"></line></g></g></g><g><g><line x1="0" y1="4438.615384615381" x2="270" y2="4438.615384615381" fill="rgb(0, 0, 0)" stroke="rgb(153, 153, 153)" stroke-width="1.5px"></line></g></g><g><g><line x1="30" y1="0" x2="30" y2="177" fill="rgb(0, 0, 0)" stroke="rgb(153, 153, 153)" stroke-width="1.5px"></line></g></g><g><g><g><g><g><path stroke="rgb(0, 119, 187)" stroke-width="2px" d="M33,-5.3808330595491745L36,5.910262906945377L38.99999999999999,16.08626901671983L42,23.881368077636616L45,29.132666377096L48,44.28479592247027L51,50.03706376851519L54,66.76249768299333L57,77.18025665227461L60,90.76798419739117L63,99.29468184732194L66,87.02538642591362L69,86.38313910709972L72,98.23799825682L75,107.79028354252875L77.99999999999999,109.30829725803373L81,113.06448983024247L84,119.18486110851553L87,124.35824937440483L90,111.81402518847754L93,109.27821756352193L96,117.46869449235355L99,122.49834081061081L102,127.95122768643576L105,134.56844876691818L108,139.5189534036819L111,131.8483317849082L114,139.209529018404L117,139.97171715053503L120,118.72503460291095L123,116.43437194885816L126,119.51208402255197L129,110.44235950490494L132,118.43946799085147L135,122.18435385137225L138,126.05193105946353L141,130.5232211182418L144,132.12518595075267L147,137.93758964371173L150,145.2257990592066L153,150.10934577587048L155.99999999999997,148.65115152309411L159,151.8676958606085L162,142.7342200289486L165,137.02625405264175L168,139.3022194996818L171,146.782104667683L174,136.96047268159984L177,145.83719984942996L180,144.1810691995296L183,148.53511587088056L186,153.83033334611983L189,152.41203650152977L192,154.65838258271685L195,154.59297419074278L198,155.00884087923964L201,159.83625895452946L204,151.4776215804272L207,153.425778374693L210,158.7515434766312L213,161.76115984035758L216,161.32513111099385L219,156.93602060191503L222,156.4284649087217L225,156.82396603782323L228,154.11472668972007L231,138.92282847599103L234,148.15369109945354L237,123.76195821224644L240,131.69422734598362L243,143.09442198398477L246,148.7556955253138L249.00000000000003,128.38342210997007L252,134.28045144701704L255,131.42616718151103L258,133.88702306692133L261,145.01258683391578" style="fill: none;" fill="none"></path></g><g><path stroke="rgb(255, 112, 67)" stroke-width="2px" d="M38.99999999999999,-19.114955393235068L42,3.942746494531368L45,18.169816723527568L48,34.69861535629009L51,52.93324346072016L54,69.54267713337924L57,79.57430568221717L60,90.11272414063079L63,97.23106971746374L66,101.563818687924L69,103.95111416147411L72,106.68575302604516L75,108.46144101508703L77.99999999999999,110.3989241863002L81,112.36730773716826L84,115.81465508674331L87,117.36222584176919L90,117.48355652817429L93,119.78113872372562L96,120.20788686631732L99,118.56800448140363L102,122.65524661454488L105,129.21788008893196L108,132.4940470987984L111,134.69979888649107L114,135.0242427828666L117,137.7009240288804L120,110.35912861863403L123,110.84496507646801L126,115.92552796783944L129,114.82088979581272L132,119.78061957013144L135,125.26005881031497L138,128.7549896772895L141,132.15382091872033L144,133.93261526244447L147,135.99094471510986L150,142.07538178973087L153,146.17628651429555L155.99999999999997,147.65080804885804L159,150.35840248484868L162,153.11603152251158L165,153.4601338888563L168,154.3893529782717L171,154.44015875381115L174,156.1528026700177L177,154.5427211803616L180,156.03255512931344L183,156.98732101094026L186,157.85655500761814L189,157.14974821417894L192,157.02268783794997L195,157.66937158984118L198,157.40912355838782L201,158.49268349324834L204,156.76143599844679L207,156.17146921197184L210,158.04062226392483L213,159.7727169140994L216,157.8766329328943L219,157.6646252546384L222,159.07009540043396L225,157.53556480891228L228,158.6227591264829L231,158.30804445822255L234,157.7259432940429L237,158.7410439183788L240,156.68825255676492L243,157.8611712441883L246,158.45341683818077L249.00000000000003,159.35119763984707L252,158.3281382302443L255,157.66593479073933L258,156.24980520580377L261,157.85876953412225" style="fill: none;" fill="none"></path></g></g></g></g><g opacity="0.2"><g><g><g><path stroke="rgb(0, 119, 187)" stroke-width="2px" d="M30,-28.665695593907106L33,8.590084461065599L36,16.749715034778454L38.99999999999999,28.05325220181406L42,34.0586494115684L45,36.39710239263694L48,65.95258360642664L51,58.423925509819725L54,91.42926395856426L57,92.64941459435691L60,111.02633582628695L63,112.03832641014692L66,68.66150467212393L69,85.42102635823773L72,116.00635203948393L75,122.11197445942811L77.99999999999999,111.58467545876142L81,118.69782499166642L84,128.36448564896222L87,132.11785890505868L90,92.99837686465347L93,105.4745895679181L96,129.75424817892227L99,130.04275070703952L102,136.1305192433871L105,144.49425216821527L108,146.94469769184408L111,120.34241113295927L114,150.25131808794464L117,141.1149989274832L120,86.85501782710743L123,112.99837842354414L126,124.1286517656767L129,96.83777337807884L132,130.43513037608224L135,127.80168254558863L138,131.8532968117641L141,137.23015616490295L144,134.52813319059524L147,146.65619516372684L150,156.15811316783612L153,157.43466584499066L155.99999999999997,146.463860144982L159,156.69251236548791L162,129.0340062838335L165,128.4643050890703L168,142.7161676700299L171,158.00193241926343L174,122.2280247028058L177,159.15229060099676L180,141.6968732246986L183,155.06618587787335L186,161.77315955895648L189,150.28459123464734L192,158.0279017044948L195,154.49486160278323L198,155.63264091198263L201,167.0773860674638L204,138.93966551927426L207,156.34801356609051L210,166.74019112953775L213,166.27558438594525L216,160.6710880169502L219,150.35235483829794L222,155.66713136893057L225,157.41721773147586L228,150.050867667565L231,116.13498115539556L234,161.99998503464923L237,87.17435888143694L240,143.59263104658865L243,160.19471394098724L246,157.24760583730847L249.00000000000003,97.82501198695263L252,143.12599545258746L255,127.1447407832513L258,137.578306895036L261,161.7009324844067" style="fill: none;" fill="none"></path></g><g><path stroke="rgb(255, 112, 67)" stroke-width="2px" d="M30,-359.0566807893602L33,0.6885236593394827L36,15.681728179638347L38.99999999999999,26.30519468967745L42,34.04688207919795L45,37.85097659551193L48,58.33506186191864L51,79.51950628940885L54,94.03836558415348L57,94.47010495112502L60,105.82476914845986L63,107.86985036043028L66,108.04879496647767L69,107.52738041144158L72,110.78449685756983L75,111.12372064590463L77.99999999999999,113.30432906517622L81,115.31938329109785L84,120.9851509424357L87,119.68344052021327L90,117.66554590371943L93,123.2274364141318L96,120.84800065480752L99,116.10820033000071L102,128.78608076389025L105,139.06180231387802L108,137.40828923078686L111,138.00842318168057L114,135.5109083285699L117,141.7159444185404L120,69.34644457010133L123,111.57371966655444L126,123.54637169837956L129,113.16393261689413L132,127.22021401845497L135,133.4792175292969L138,133.9973859236791L141,137.25206774931692L144,136.60080676812396L147,139.07843888722937L150,151.20203738946185L153,152.32764359620904L155.99999999999997,149.86259034963757L159,154.4197941376613L162,157.25247507828936L165,153.9762874383193L168,155.78318161230825L171,154.51636741711545L174,158.72176854427045L177,152.12759894591116L180,158.2673060527215L183,158.41946983337405L186,159.1604060026316L189,156.08953802402203L192,156.83209727360654L195,158.6393972176772L198,157.01875151120703L201,160.11802339553836L204,154.16456475624673L207,155.28651903225827L210,160.84435184185324L213,162.3708588893597L216,155.03250696108893L219,157.34661373725305L222,161.1783006191254L225,155.23376892163205L228,160.25355060283957L231,157.8359724558317L234,156.8527915477753L237,160.26369485488306L240,153.60906551434445L243,159.62054927532492L246,159.34178522916943L249.00000000000003,160.69786884234503L252,156.79354911584124L255,156.67262963148266L258,154.1256108283997L261,160.2722160265996" style="fill: none;" fill="none"></path></g></g></g></g></g></g><g transform="translate(60, 177)" clip-path="url(#clip_1)"><clipPath id="clip_1"><rect width="270" height="23"></rect></clipPath><g><g><line x1="0" y1="0" x2="0" y2="5" style="visibility: inherit;" fill="rgb(0, 0, 0)" stroke="rgb(204, 204, 204)" stroke-width="1px"></line><line x1="30" y1="0" x2="30" y2="5" style="visibility: inherit;" fill="rgb(0, 0, 0)" stroke="rgb(204, 204, 204)" stroke-width="1px"></line><line x1="60" y1="0" x2="60" y2="5" style="visibility: inherit;" fill="rgb(0, 0, 0)" stroke="rgb(204, 204, 204)" stroke-width="1px"></line><line x1="90" y1="0" x2="90" y2="5" style="visibility: inherit;" fill="rgb(0, 0, 0)" stroke="rgb(204, 204, 204)" stroke-width="1px"></line><line x1="120" y1="0" x2="120" y2="5" style="visibility: inherit;" fill="rgb(0, 0, 0)" stroke="rgb(204, 204, 204)" stroke-width="1px"></line><line x1="150" y1="0" x2="150" y2="5" style="visibility: inherit;" fill="rgb(0, 0, 0)" stroke="rgb(204, 204, 204)" stroke-width="1px"></line><line x1="180" y1="0" x2="180" y2="5" style="visibility: inherit;" fill="rgb(0, 0, 0)" stroke="rgb(204, 204, 204)" stroke-width="1px"></line><line x1="210" y1="0" x2="210" y2="5" style="visibility: inherit;" fill="rgb(0, 0, 0)" stroke="rgb(204, 204, 204)" stroke-width="1px"></line><line x1="240" y1="0" x2="240" y2="5" style="visibility: inherit;" fill="rgb(0, 0, 0)" stroke="rgb(204, 204, 204)" stroke-width="1px"></line><line x1="270" y1="0" x2="270" y2="5" style="visibility: inherit;" fill="rgb(0, 0, 0)" stroke="rgb(204, 204, 204)" stroke-width="1px"></line></g><g transform="translate(0, 8)"><text x="0" y="0" dx="0em" dy="0.95em" style="text-anchor: middle; visibility: hidden; font-family: Roboto, sans-serif; font-size: 12px; font-weight: 200;" fill="rgb(255, 255, 255)" stroke="none" stroke-width="1px">-10</text><text x="30" y="0" dx="0em" dy="0.95em" style="text-anchor: middle; visibility: inherit; font-family: Roboto, sans-serif; font-size: 12px; font-weight: 200;" fill="rgb(255, 255, 255)" stroke="none" stroke-width="1px">0</text><text x="60" y="0" dx="0em" dy="0.95em" style="text-anchor: middle; visibility: inherit; font-family: Roboto, sans-serif; font-size: 12px; font-weight: 200;" fill="rgb(255, 255, 255)" stroke="none" stroke-width="1px">10</text><text x="90" y="0" dx="0em" dy="0.95em" style="text-anchor: middle; visibility: inherit; font-family: Roboto, sans-serif; font-size: 12px; font-weight: 200;" fill="rgb(255, 255, 255)" stroke="none" stroke-width="1px">20</text><text x="120" y="0" dx="0em" dy="0.95em" style="text-anchor: middle; visibility: inherit; font-family: Roboto, sans-serif; font-size: 12px; font-weight: 200;" fill="rgb(255, 255, 255)" stroke="none" stroke-width="1px">30</text><text x="150" y="0" dx="0em" dy="0.95em" style="text-anchor: middle; visibility: inherit; font-family: Roboto, sans-serif; font-size: 12px; font-weight: 200;" fill="rgb(255, 255, 255)" stroke="none" stroke-width="1px">40</text><text x="180" y="0" dx="0em" dy="0.95em" style="text-anchor: middle; visibility: inherit; font-family: Roboto, sans-serif; font-size: 12px; font-weight: 200;" fill="rgb(255, 255, 255)" stroke="none" stroke-width="1px">50</text><text x="210" y="0" dx="0em" dy="0.95em" style="text-anchor: middle; visibility: inherit; font-family: Roboto, sans-serif; font-size: 12px; font-weight: 200;" fill="rgb(255, 255, 255)" stroke="none" stroke-width="1px">60</text><text x="240" y="0" dx="0em" dy="0.95em" style="text-anchor: middle; visibility: inherit; font-family: Roboto, sans-serif; font-size: 12px; font-weight: 200;" fill="rgb(255, 255, 255)" stroke="none" stroke-width="1px">70</text><text x="270" y="0" dx="0em" dy="0.95em" style="text-anchor: middle; visibility: hidden; font-family: Roboto, sans-serif; font-size: 12px; font-weight: 200;" fill="rgb(255, 255, 255)" stroke="none" stroke-width="1px">80</text></g><line x1="0" y1="0" x2="270" y2="0" fill="rgb(0, 0, 0)" stroke="rgb(204, 204, 204)" stroke-width="1px"></line></g></g></g></g></svg>