<svg viewBox="0 0 330 200" xmlns="http://www.w3.org/2000/svg"><g><g><g><g><g><line x1="61.953125" y1="177" x2="56.953125" y2="177" style="visibility: inherit;" fill="rgb(0, 0, 0)" stroke="rgb(204, 204, 204)" stroke-width="1px"></line><line x1="61.953125" y1="154.87499999999994" x2="56.953125" y2="154.87499999999994" style="visibility: inherit;" fill="rgb(0, 0, 0)" stroke="rgb(204, 204, 204)" stroke-width="1px"></line><line x1="61.953125" y1="132.7499999999999" x2="56.953125" y2="132.7499999999999" style="visibility: inherit;" fill="rgb(0, 0, 0)" stroke="rgb(204, 204, 204)" stroke-width="1px"></line><line x1="61.953125" y1="110.62500000000031" x2="56.953125" y2="110.62500000000031" style="visibility: inherit;" fill="rgb(0, 0, 0)" stroke="rgb(204, 204, 204)" stroke-width="1px"></line><line x1="61.953125" y1="88.50000000000024" x2="56.953125" y2="88.50000000000024" style="visibility: inherit;" fill="rgb(0, 0, 0)" stroke="rgb(204, 204, 204)" stroke-width="1px"></line><line x1="61.953125" y1="66.37500000000017" x2="56.953125" y2="66.37500000000017" style="visibility: inherit;" fill="rgb(0, 0, 0)" stroke="rgb(204, 204, 204)" stroke-width="1px"></line><line x1="61.953125" y1="44.25000000000012" x2="56.953125" y2="44.25000000000012" style="visibility: inherit;" fill="rgb(0, 0, 0)" stroke="rgb(204, 204, 204)" stroke-width="1px"></line><line x1="61.953125" y1="22.12500000000006" x2="56.953125" y2="22.12500000000006" style="visibility: inherit;" fill="rgb(0, 0, 0)" stroke="rgb(204, 204, 204)" stroke-width="1px"></line><line x1="61.953125" y1="0" x2="56.953125" y2="0" style="visibility: inherit;" fill="rgb(0, 0, 0)" stroke="rgb(204, 204, 204)" stroke-width="1px"></line></g><g transform="translate(51.953125, 0)"><text x="0" y="177" dx="0em" dy="0.3em" style="text-anchor: end; visibility: hidden; font-family: Roboto, sans-serif; font-size: 12px; font-weight: 200;" fill="rgb(255, 255, 255)" stroke="none" stroke-width="1px">0.675</text><text x="0" y="154.87499999999994" dx="0em" dy="0.3em" style="text-anchor: end; visibility: inherit; font-family: Roboto, sans-serif; font-size: 12px; font-weight: 200;" fill="rgb(255, 255, 255)" stroke="none" stroke-width="1px">0.68</text><text x="0" y="132.7499999999999" dx="0em" dy="0.3em" style="text-anchor: end; visibility: hidden; font-family: Roboto, sans-serif; font-size: 12px; font-weight: 200;" fill="rgb(255, 255, 255)" stroke="none" stroke-width="1px">0.685</text><text x="0" y="110.62500000000031" dx="0em" dy="0.3em" style="text-anchor: end; visibility: inherit; font-family: Roboto, sans-serif; font-size: 12px; font-weight: 200;" fill="rgb(255, 255, 255)" stroke="none" stroke-width="1px">0.69</text><text x="0" y="88.50000000000024" dx="0em" dy="0.3em" style="text-anchor: end; visibility: hidden; font-family: Roboto, sans-serif; font-size: 12px; font-weight: 200;" fill="rgb(255, 255, 255)" stroke="none" stroke-width="1px">0.695</text><text x="0" y="66.37500000000017" dx="0em" dy="0.3em" style="text-anchor: end; visibility: inherit; font-family: Roboto, sans-serif; font-size: 12px; font-weight: 200;" fill="rgb(255, 255, 255)" stroke="none" stroke-width="1px">0.7</text><text x="0" y="44.25000000000012" dx="0em" dy="0.3em" style="text-anchor: end; visibility: hidden; font-family: Roboto, sans-serif; font-size: 12px; font-weight: 200;" fill="rgb(255, 255, 255)" stroke="none" stroke-width="1px">0.705</text><text x="0" y="22.12500000000006" dx="0em" dy="0.3em" style="text-anchor: end; visibility: inherit; font-family: Roboto, sans-serif; font-size: 12px; font-weight: 200;" fill="rgb(255, 255, 255)" stroke="none" stroke-width="1px">0.71</text><text x="0" y="0" dx="0em" dy="0.3em" style="text-anchor: end; visibility: hidden; font-family: Roboto, sans-serif; font-size: 12px; font-weight: 200;" fill="rgb(255, 255, 255)" stroke="none" stroke-width="1px">0.715</text></g><line x1="61.953125" y1="0" x2="61.953125" y2="177" fill="rgb(0, 0, 0)" stroke="rgb(204, 204, 204)" stroke-width="1px"></line></g></g><g transform="translate(61, 0)" clip-path="url(#clip_0)"><clipPath id="clip_0"><rect width="268" height="177"></rect></clipPath><g><g><g><line x1="0" y1="0" x2="0" y2="177" fill="rgb(0, 0, 0)" stroke="rgb(189, 189, 189)" stroke-width="1px" opacity="0.25"></line><line x1="29.78298611111111" y1="0" x2="29.78298611111111" y2="177" fill="rgb(0, 0, 0)" stroke="rgb(189, 189, 189)" stroke-width="1px" opacity="0.25"></line><line x1="59.56597222222222" y1="0" x2="59.56597222222222" y2="177" fill="rgb(0, 0, 0)" stroke="rgb(189, 189, 189)" stroke-width="1px" opacity="0.25"></line><line x1="89.34895833333333" y1="0" x2="89.34895833333333" y2="177" fill="rgb(0, 0, 0)" stroke="rgb(189, 189, 189)" stroke-width="1px" opacity="0.25"></line><line x1="119.13194444444444" y1="0" x2="119.13194444444444" y2="177" fill="rgb(0, 0, 0)" stroke="rgb(189, 189, 189)" stroke-width="1px" opacity="0.25"></line><line x1="148.91493055555557" y1="0" x2="148.91493055555557" y2="177" fill="rgb(0, 0, 0)" stroke="rgb(189, 189, 189)" stroke-width="1px" opacity="0.25"></line><line x1="178.69791666666666" y1="0" x2="178.69791666666666" y2="177" fill="rgb(0, 0, 0)" stroke="rgb(189, 189, 189)" stroke-width="1px" opacity="0.25"></line><line x1="208.48090277777777" y1="0" x2="208.48090277777777" y2="177" fill="rgb(0, 0, 0)" stroke="rgb(189, 189, 189)" stroke-width="1px" opacity="0.25"></line><line x1="238.26388888888889" y1="0" x2="238.26388888888889" y2="177" fill="rgb(0, 0, 0)" stroke="rgb(189, 189, 189)" stroke-width="1px" opacity="0.25"></line><line x1="268.046875" y1="0" x2="268.046875" y2="177" fill="rgb(0, 0, 0)" stroke="rgb(189, 189, 189)" stroke-width="1px" opacity="0.25"></line></g><g><line x1="0" y1="177" x2="268.046875" y2="177" fill="rgb(0, 0, 0)" stroke="rgb(189, 189, 189)" stroke-width="1px" opacity="0.25"></line><line x1="0" y1="154.87499999999994" x2="268.046875" y2="154.87499999999994" fill="rgb(0, 0, 0)" stroke="rgb(189, 189, 189)" stroke-width="1px" opacity="0.25"></line><line x1="0" y1="132.7499999999999" x2="268.046875" y2="132.7499999999999" fill="rgb(0, 0, 0)" stroke="rgb(189, 189, 189)" stroke-width="1px" opacity="0.25"></line><line x1="0" y1="110.62500000000031" x2="268.046875" y2="110.62500000000031" fill="rgb(0, 0, 0)" stroke="rgb(189, 189, 189)" stroke-width="1px" opacity="0.25"></line><line x1="0" y1="88.50000000000024" x2="268.046875" y2="88.50000000000024" fill="rgb(0, 0, 0)" stroke="rgb(189, 189, 189)" stroke-width="1px" opacity="0.25"></line><line x1="0" y1="66.37500000000017" x2="268.046875" y2="66.37500000000017" fill="rgb(0, 0, 0)" stroke="rgb(189, 189, 189)" stroke-width="1px" opacity="0.25"></line><line x1="0" y1="44.25000000000012" x2="268.046875" y2="44.25000000000012" fill="rgb(0, 0, 0)" stroke="rgb(189, 189, 189)" stroke-width="1px" opacity="0.25"></line><line x1="0" y1="22.12500000000006" x2="268.046875" y2="22.12500000000006" fill="rgb(0, 0, 0)" stroke="rgb(189, 189, 189)" stroke-width="1px" opacity="0.25"></line><line x1="0" y1="0" x2="268.046875" y2="0" fill="rgb(0, 0, 0)" stroke="rgb(189, 189, 189)" stroke-width="1px" opacity="0.25"></line></g></g></g><g><g><line x1="0" y1="3163.8750000000055" x2="268.046875" y2="3163.8750000000055" fill="rgb(0, 0, 0)" stroke="rgb(153, 153, 153)" stroke-width="1.5px"></line></g></g><g><g><line x1="29.78298611111111" y1="0" x2="29.78298611111111" y2="177" fill="rgb(0, 0, 0)" stroke="rgb(153, 153, 153)" stroke-width="1.5px"></line></g></g><g><g><g><g><g><path stroke="rgb(0, 119, 187)" stroke-width="2px" d="M35.739583333333336,-16.663272492739544L38.71788194444444,30.110099311041548L41.69618055555556,58.31573234205893L44.674479166666664,79.09372427838738L47.65277777777778,40.96135995075602L50.631076388888886,14.669463133471952L53.609375,110.05476924749414L56.587673611111114,86.85860309133781L59.56597222222222,60.17906882434384L62.544270833333336,53.02829455412256L65.52256944444444,142.2168999446275L68.50086805555556,87.47863629976223L71.47916666666667,111.00575900018794L74.45746527777779,97.71619894589396L77.43576388888889,49.54078525533942L80.4140625,39.2178560884545L83.39236111111111,81.29743837496622L86.37065972222223,76.18284891967441L89.34895833333333,64.78025312841802L92.32725694444444,158.4510834922458L95.30555555555556,128.12568084916896L98.28385416666666,90.91999558910531L101.26215277777777,111.46240302708459L104.24045138888889,72.63150956526846L107.21875,64.08744792441915L110.1970486111111,135.85342301249008L113.17534722222223,83.3950488478741L116.15364583333334,52.789675235468934L119.13194444444444,103.42329274877298L122.11024305555556,88.09843846941287L125.08854166666667,76.04141104334586L128.06684027777777,64.68941570250018L131.04513888888889,58.252533497590406L134.0234375,46.646160424550246L137.00173611111111,61.59198974131317L139.98003472222223,47.240667781939194L142.95833333333334,58.982344368457106L145.93663194444443,62.56145703040742L148.91493055555557,44.40793903351078L151.89322916666666,24.230226266688714L154.87152777777777,6.46477774363766L157.84982638888889,21.18611886507198L160.828125,26.616857901219962L163.80642361111111,64.29749151405527L166.78472222222223,57.846890737391995L169.76302083333331,60.851135688954926L172.74131944444446,99.92131931711297L175.71961805555554,82.84997302952924L178.69791666666666,92.7797570626238L181.6762152777778,91.73631629945336L184.65451388888889,92.59590595723222L187.6328125,126.7777298555794L190.61111111111111,115.16823133623029L193.58940972222223,113.48925381180813L196.56770833333331,98.96401844785578L199.54600694444446,89.65913099268508L202.52430555555554,136.80394309890315L205.50260416666669,92.17044893581703L208.48090277777777,92.10564596461687L211.45920138888889,103.33323830966644L214.4375,108.21351732375929L217.41579861111111,117.07902618386L220.3940972222222,110.82717273317357L223.37239583333334,125.76932836581811L226.35069444444446,124.784368377981L229.32899305555554,103.98271499994829L232.30729166666669,111.8683296854702L235.28559027777777,219.48657376858074L241.2421875,179.81114391550705L244.22048611111111,152.21507723370348L247.19878472222223,207.9735133840993L250.17708333333334,160.20690873827647L253.15538194444443,91.07094206551413L256.13368055555554,73.63750449502307L259.1119791666667,79.68717157652263" style="fill: none;" fill="none"></path></g><g><path stroke="rgb(255, 112, 67)" stroke-width="2px" d="M35.739583333333336,224.9970226147956L38.71788194444444,157.81407797194174L41.69618055555556,133.25339215689877L44.674479166666664,119.04570000555074L47.65277777777778,102.56511992554653L50.631076388888886,101.52415302103044L53.609375,96.58087174984523L56.587673611111114,95.82968427948286L59.56597222222222,89.22111336657767L62.544270833333336,88.39356666409002L65.52256944444444,86.63116856370785L68.50086805555556,87.71325896917371L71.47916666666667,85.9403400653099L74.45746527777779,82.71365200277641L77.43576388888889,81.08253599406274L80.4140625,80.94855264584845L83.39236111111111,79.06284705110511L86.37065972222223,83.26789353567644L89.34895833333333,82.31873458018659L92.32725694444444,80.56932252799864L95.30555555555556,89.1242950263291L98.28385416666666,91.40407378303348L101.26215277777777,88.85248426060313L104.24045138888889,82.57939765557228L107.21875,77.4168291760889L110.1970486111111,76.58976312591518L113.17534722222223,79.43039154834965L116.15364583333334,80.49944545911922L119.13194444444444,60.38317886840811L122.11024305555556,63.37146839947881L125.08854166666667,75.15235938926577L128.06684027777777,92.20490734737743L131.04513888888889,91.92682008838435L134.0234375,87.98907328892719L137.00173611111111,89.42200671873553L139.98003472222223,74.31219822066477L142.95833333333334,60.923652582723754L145.93663194444443,53.64685630621836L148.91493055555557,37.256918320755986L151.89322916666666,25.33331265453875L154.87152777777777,22.864941586761447L157.84982638888889,28.90893322912811L160.828125,44.98846883158926L163.80642361111111,58.21676220130602L166.78472222222223,71.49943443366931L169.76302083333331,80.48605990566566L172.74131944444446,90.53766346085322L175.71961805555554,96.9000017888358L178.69791666666666,99.3227973608505L181.6762152777778,102.9363807337586L184.65451388888889,104.54917759282245L187.6328125,105.71340262045327L190.61111111111111,106.09258846729944L193.58940972222223,105.07213785821132L196.56770833333331,106.55415238484146L199.54600694444446,106.53363269295895L202.52430555555554,107.03352445201044L205.50260416666669,107.10399652621727L208.48090277777777,106.50452192486287L211.45920138888889,106.15243317998001L214.4375,106.92159348914926L217.41579861111111,107.03810395115579L220.3940972222222,107.38547581025352L223.37239583333334,107.76660278790153L226.35069444444446,108.01342501254686L229.32899305555554,107.70195938355819L232.30729166666669,105.88162008051326L235.28559027777777,105.78628808930071L238.26388888888889,105.65639924212996L241.2421875,104.68888806822693L244.22048611111111,105.54550537778596L247.19878472222223,105.2723386127577L250.17708333333334,104.4305996321936L253.15538194444443,105.41458636661181L256.13368055555554,106.8383246549356L259.1119791666667,103.4818427973023" style="fill: none;" fill="none"></path></g></g></g></g><g opacity="0.2"><g><g><g><path stroke="rgb(0, 119, 187)" stroke-width="2px" d="M32.76128472222222,-33.629134476185044L35.739583333333336,44.8553813695907L38.71788194444444,85.11558455228807L41.69618055555556,95.14100682735447L44.674479166666664,107.83716720342645L47.65277777777778,-13.568531155586399L53.609375,250.72956812381776L56.587673611111114,52.414999723434406L59.56597222222222,20.401748836040397L62.544270833333336,42.34104734659189L65.52256944444444,275.70859175920526L68.50086805555556,5.478478789329411L71.47916666666667,146.26878780126586L74.45746527777779,77.79123169183731L77.43576388888889,-22.70194905996342L80.4140625,23.736083328723808L83.39236111111111,144.4104014039041L86.37065972222223,68.51143223047256L89.34895833333333,47.67698478698726L92.32725694444444,298.9542467594151L95.30555555555556,82.63817560672761L98.28385416666666,35.111908435821455L101.26215277777777,142.27586817741408L104.24045138888889,14.385334968566777L107.21875,51.27137732505794L110.1970486111111,243.50227546691926L113.17534722222223,4.707535922527176L116.15364583333334,6.881631731986881L119.13194444444444,179.3737022280695L122.11024305555556,65.11116009950636L125.08854166666667,57.95587134361265L128.06684027777777,47.66142350435253L131.04513888888889,48.59721046686168L134.0234375,29.236601114272993L137.00173611111111,84.01073348522188L139.98003472222223,25.713684976100822L142.95833333333334,76.59485918283463L145.93663194444443,67.93012601137161L148.91493055555557,17.177662074565788L151.89322916666666,-6.036342859268346L154.87152777777777,-20.183395028114475L157.84982638888889,43.26813054084772L160.828125,34.762966454029005L163.80642361111111,120.8184419274331L166.78472222222223,48.17098957300182L169.76302083333331,65.35750311613081L172.74131944444446,158.52659475803392L175.71961805555554,57.242953598499255L178.69791666666666,107.67443311214456L181.6762152777778,90.17115515470509L184.65451388888889,93.88529044389729L187.6328125,178.05046570301076L190.61111111111111,97.75398355722432L193.58940972222223,110.97078752517709L196.56770833333331,77.17616540193558L199.54600694444446,75.70179980993271L202.52430555555554,207.5211612582209L205.50260416666669,25.220207691192527L208.48090277777777,92.00844150781636L211.45920138888889,120.17462682724008L214.4375,115.53393584489831L217.41579861111111,130.37728947401058L220.3940972222222,101.44939255714421L223.37239583333334,148.18256181478515L226.35069444444446,123.30692839622508L229.32899305555554,72.78023493289948L232.30729166666669,123.69675171375285L235.28559027777777,380.9139398932463L238.26388888888889,148.99517726898208L241.2421875,162.59283703565615L244.22048611111111,110.82097721099862L247.19878472222223,291.611167609692L250.17708333333334,88.55700176954274L253.15538194444443,-12.633007943630375L256.13368055555554,47.487348139286L259.1119791666667,88.76167219877247" style="fill: none;" fill="none"></path></g><g><path stroke="rgb(255, 112, 67)" stroke-width="2px" d="M35.739583333333336,-17.435114264488377L38.71788194444444,78.8069350719452L41.69618055555556,101.18696075677876L44.674479166666664,99.3913469910622L47.65277777777778,78.99762672185899L50.631076388888886,100.00641328096394L53.609375,89.29049205780034L56.587673611111114,94.71425843238835L59.56597222222222,79.3681962490082L62.544270833333336,87.15675008296968L65.52256944444444,83.99332594871522L68.50086805555556,89.3342746496201L71.47916666666667,83.28304570913316L74.45746527777779,77.8758956193924L77.43576388888889,78.63655221462251L80.4140625,80.74761164188386L83.39236111111111,76.23457592725754L86.37065972222223,89.5750789046288L89.34895833333333,80.89504820108415L92.32725694444444,77.94526201486588L95.30555555555556,101.95658487081533L98.28385416666666,94.82371491193776L101.26215277777777,85.0251181125641L104.24045138888889,73.16979449987411L107.21875,69.67298966646194L110.1970486111111,75.34916532039642L113.17534722222223,83.69133156538011L116.15364583333334,82.1030257344246L119.13194444444444,30.20878565311424L122.11024305555556,67.85390210151672L125.08854166666667,92.8236944675446L128.06684027777777,117.78372806310662L131.04513888888889,91.50968921184544L134.0234375,82.08245319128038L137.00173611111111,91.57140684127812L139.98003472222223,51.647485613822894L142.95833333333334,40.840834200382176L145.93663194444443,42.73166191577906L148.91493055555557,12.672011375427129L151.89322916666666,7.447904169559361L154.87152777777777,19.162384986877342L157.84982638888889,37.974920690059605L160.828125,69.10777223110199L163.80642361111111,78.05920225381851L166.78472222222223,91.42344278097157L169.76302083333331,93.96599811315541L172.74131944444446,105.61506879329687L175.71961805555554,106.44350928068167L178.69791666666666,102.95699071884161L181.6762152777778,108.35675579309472L184.65451388888889,106.96837288141259L187.6328125,107.45974016189584L190.61111111111111,106.66136723756796L193.58940972222223,103.54146194458013L196.56770833333331,108.7771741747857L199.54600694444446,106.50285315513617L202.52430555555554,107.7833620905877L205.50260416666669,107.20970463752755L208.48090277777777,105.60531002283102L211.45920138888889,105.62430006265646L214.4375,108.07533395290383L217.41579861111111,107.21286964416512L220.3940972222222,107.90653359889993L223.37239583333334,108.33829325437554L226.35069444444446,108.38365834951409L229.32899305555554,107.234760940075L232.30729166666669,103.1511111259461L235.28559027777777,105.6432901024819L238.26388888888889,105.46156597137457L241.2421875,103.2376213073731L244.22048611111111,106.83043134212502L247.19878472222223,104.86258846521383L250.17708333333334,103.16799116134649L253.15538194444443,106.89056646823892L256.13368055555554,108.9739320874215L259.1119791666667,98.44712001085286" style="fill: none;" fill="none"></path></g></g></g></g></g></g><g transform="translate(61, 177)" clip-path="url(#clip_1)"><clipPath id="clip_1"><rect width="268" height="23"></rect></clipPath><g><g><line x1="0" y1="0" x2="0" y2="5" style="visibility: inherit;" fill="rgb(0, 0, 0)" stroke="rgb(204, 204, 204)" stroke-width="1px"></line><line x1="29.78298611111111" y1="0" x2="29.78298611111111" y2="5" style="visibility: inherit;" fill="rgb(0, 0, 0)" stroke="rgb(204, 204, 204)" stroke-width="1px"></line><line x1="59.56597222222222" y1="0" x2="59.56597222222222" y2="5" style="visibility: inherit;" fill="rgb(0, 0, 0)" stroke="rgb(204, 204, 204)" stroke-width="1px"></line><line x1="89.34895833333333" y1="0" x2="89.34895833333333" y2="5" style="visibility: inherit;" fill="rgb(0, 0, 0)" stroke="rgb(204, 204, 204)" stroke-width="1px"></line><line x1="119.13194444444444" y1="0" x2="119.13194444444444" y2="5" style="visibility: inherit;" fill="rgb(0, 0, 0)" stroke="rgb(204, 204, 204)" stroke-width="1px"></line><line x1="148.91493055555557" y1="0" x2="148.91493055555557" y2="5" style="visibility: inherit;" fill="rgb(0, 0, 0)" stroke="rgb(204, 204, 204)" stroke-width="1px"></line><line x1="178.69791666666666" y1="0" x2="178.69791666666666" y2="5" style="visibility: inherit;" fill="rgb(0, 0, 0)" stroke="rgb(204, 204, 204)" stroke-width="1px"></line><line x1="208.48090277777777" y1="0" x2="208.48090277777777" y2="5" style="visibility: inherit;" fill="rgb(0, 0, 0)" stroke="rgb(204, 204, 204)" stroke-width="1px"></line><line x1="238.26388888888889" y1="0" x2="238.26388888888889" y2="5" style="visibility: inherit;" fill="rgb(0, 0, 0)" stroke="rgb(204, 204, 204)" stroke-width="1px"></line><line x1="268.046875" y1="0" x2="268.046875" y2="5" style="visibility: inherit;" fill="rgb(0, 0, 0)" stroke="rgb(204, 204, 204)" stroke-width="1px"></line></g><g transform="translate(0, 8)"><text x="0" y="0" dx="0em" dy="0.95em" style="text-anchor: middle; visibility: hidden; font-family: Roboto, sans-serif; font-size: 12px; font-weight: 200;" fill="rgb(255, 255, 255)" stroke="none" stroke-width="1px">-10</text><text x="29.78298611111111" y="0" dx="0em" dy="0.95em" style="text-anchor: middle; visibility: inherit; font-family: Roboto, sans-serif; font-size: 12px; font-weight: 200;" fill="rgb(255, 255, 255)" stroke="none" stroke-width="1px">0</text><text x="59.56597222222222" y="0" dx="0em" dy="0.95em" style="text-anchor: middle; visibility: inherit; font-family: Roboto, sans-serif; font-size: 12px; font-weight: 200;" fill="rgb(255, 255, 255)" stroke="none" stroke-width="1px">10</text><text x="89.34895833333333" y="0" dx="0em" dy="0.95em" style="text-anchor: middle; visibility: inherit; font-family: Roboto, sans-serif; font-size: 12px; font-weight: 200;" fill="rgb(255, 255, 255)" stroke="none" stroke-width="1px">20</text><text x="119.13194444444444" y="0" dx="0em" dy="0.95em" style="text-anchor: middle; visibility: inherit; font-family: Roboto, sans-serif; font-size: 12px; font-weight: 200;" fill="rgb(255, 255, 255)" stroke="none" stroke-width="1px">30</text><text x="148.91493055555557" y="0" dx="0em" dy="0.95em" style="text-anchor: middle; visibility: inherit; font-family: Roboto, sans-serif; font-size: 12px; font-weight: 200;" fill="rgb(255, 255, 255)" stroke="none" stroke-width="1px">40</text><text x="178.69791666666666" y="0" dx="0em" dy="0.95em" style="text-anchor: middle; visibility: inherit; font-family: Roboto, sans-serif; font-size: 12px; font-weight: 200;" fill="rgb(255, 255, 255)" stroke="none" stroke-width="1px">50</text><text x="208.48090277777777" y="0" dx="0em" dy="0.95em" style="text-anchor: middle; visibility: inherit; font-family: Roboto, sans-serif; font-size: 12px; font-weight: 200;" fill="rgb(255, 255, 255)" stroke="none" stroke-width="1px">60</text><text x="238.26388888888889" y="0" dx="0em" dy="0.95em" style="text-anchor: middle; visibility: inherit; font-family: Roboto, sans-serif; font-size: 12px; font-weight: 200;" fill="rgb(255, 255, 255)" stroke="none" stroke-width="1px">70</text><text x="268.046875" y="0" dx="0em" dy="0.95em" style="text-anchor: middle; visibility: hidden; font-family: Roboto, sans-serif; font-size: 12px; font-weight: 200;" fill="rgb(255, 255, 255)" stroke="none" stroke-width="1px">80</text></g><line x1="0" y1="0" x2="268.046875" y2="0" fill="rgb(0, 0, 0)" stroke="rgb(204, 204, 204)" stroke-width="1px"></line></g></g></g></g></svg>