<svg viewBox="0 0 330 200" xmlns="http://www.w3.org/2000/svg"><g><g><g><g><g><line x1="60" y1="177" x2="55" y2="177" style="visibility: inherit;" fill="rgb(0, 0, 0)" stroke="rgb(204, 204, 204)" stroke-width="1px"></line><line x1="60" y1="160.9090909090909" x2="55" y2="160.9090909090909" style="visibility: inherit;" fill="rgb(0, 0, 0)" stroke="rgb(204, 204, 204)" stroke-width="1px"></line><line x1="60" y1="144.8181818181818" x2="55" y2="144.8181818181818" style="visibility: inherit;" fill="rgb(0, 0, 0)" stroke="rgb(204, 204, 204)" stroke-width="1px"></line><line x1="60" y1="128.72727272727272" x2="55" y2="128.72727272727272" style="visibility: inherit;" fill="rgb(0, 0, 0)" stroke="rgb(204, 204, 204)" stroke-width="1px"></line><line x1="60" y1="112.63636363636365" x2="55" y2="112.63636363636365" style="visibility: inherit;" fill="rgb(0, 0, 0)" stroke="rgb(204, 204, 204)" stroke-width="1px"></line><line x1="60" y1="96.54545454545453" x2="55" y2="96.54545454545453" style="visibility: inherit;" fill="rgb(0, 0, 0)" stroke="rgb(204, 204, 204)" stroke-width="1px"></line><line x1="60" y1="80.45454545454547" x2="55" y2="80.45454545454547" style="visibility: inherit;" fill="rgb(0, 0, 0)" stroke="rgb(204, 204, 204)" stroke-width="1px"></line><line x1="60" y1="64.36363636363639" x2="55" y2="64.36363636363639" style="visibility: inherit;" fill="rgb(0, 0, 0)" stroke="rgb(204, 204, 204)" stroke-width="1px"></line><line x1="60" y1="48.272727272727266" x2="55" y2="48.272727272727266" style="visibility: inherit;" fill="rgb(0, 0, 0)" stroke="rgb(204, 204, 204)" stroke-width="1px"></line><line x1="60" y1="32.181818181818194" x2="55" y2="32.181818181818194" style="visibility: inherit;" fill="rgb(0, 0, 0)" stroke="rgb(204, 204, 204)" stroke-width="1px"></line><line x1="60" y1="16.090909090909097" x2="55" y2="16.090909090909097" style="visibility: inherit;" fill="rgb(0, 0, 0)" stroke="rgb(204, 204, 204)" stroke-width="1px"></line><line x1="60" y1="0" x2="55" y2="0" style="visibility: inherit;" fill="rgb(0, 0, 0)" stroke="rgb(204, 204, 204)" stroke-width="1px"></line></g><g transform="translate(50, 0)"><text x="0" y="177" dx="0em" dy="0.3em" style="text-anchor: end; visibility: hidden; font-family: Roboto, sans-serif; font-size: 12px; font-weight: 200;" fill="rgb(255, 255, 255)" stroke="none" stroke-width="1px">0.01</text><text x="0" y="160.9090909090909" dx="0em" dy="0.3em" style="text-anchor: end; visibility: inherit; font-family: Roboto, sans-serif; font-size: 12px; font-weight: 200;" fill="rgb(255, 255, 255)" stroke="none" stroke-width="1px">0.015</text><text x="0" y="144.8181818181818" dx="0em" dy="0.3em" style="text-anchor: end; visibility: hidden; font-family: Roboto, sans-serif; font-size: 12px; font-weight: 200;" fill="rgb(255, 255, 255)" stroke="none" stroke-width="1px">0.02</text><text x="0" y="128.72727272727272" dx="0em" dy="0.3em" style="text-anchor: end; visibility: inherit; font-family: Roboto, sans-serif; font-size: 12px; font-weight: 200;" fill="rgb(255, 255, 255)" stroke="none" stroke-width="1px">0.025</text><text x="0" y="112.63636363636365" dx="0em" dy="0.3em" style="text-anchor: end; visibility: hidden; font-family: Roboto, sans-serif; font-size: 12px; font-weight: 200;" fill="rgb(255, 255, 255)" stroke="none" stroke-width="1px">0.03</text><text x="0" y="96.54545454545453" dx="0em" dy="0.3em" style="text-anchor: end; visibility: inherit; font-family: Roboto, sans-serif; font-size: 12px; font-weight: 200;" fill="rgb(255, 255, 255)" stroke="none" stroke-width="1px">0.035</text><text x="0" y="80.45454545454547" dx="0em" dy="0.3em" style="text-anchor: end; visibility: hidden; font-family: Roboto, sans-serif; font-size: 12px; font-weight: 200;" fill="rgb(255, 255, 255)" stroke="none" stroke-width="1px">0.04</text><text x="0" y="64.36363636363639" dx="0em" dy="0.3em" style="text-anchor: end; visibility: inherit; font-family: Roboto, sans-serif; font-size: 12px; font-weight: 200;" fill="rgb(255, 255, 255)" stroke="none" stroke-width="1px">0.045</text><text x="0" y="48.272727272727266" dx="0em" dy="0.3em" style="text-anchor: end; visibility: hidden; font-family: Roboto, sans-serif; font-size: 12px; font-weight: 200;" fill="rgb(255, 255, 255)" stroke="none" stroke-width="1px">0.05</text><text x="0" y="32.181818181818194" dx="0em" dy="0.3em" style="text-anchor: end; visibility: inherit; font-family: Roboto, sans-serif; font-size: 12px; font-weight: 200;" fill="rgb(255, 255, 255)" stroke="none" stroke-width="1px">0.055</text><text x="0" y="16.090909090909097" dx="0em" dy="0.3em" style="text-anchor: end; visibility: hidden; font-family: Roboto, sans-serif; font-size: 12px; font-weight: 200;" fill="rgb(255, 255, 255)" stroke="none" stroke-width="1px">0.06</text><text x="0" y="0" dx="0em" dy="0.3em" style="text-anchor: end; visibility: hidden; font-family: Roboto, sans-serif; font-size: 12px; font-weight: 200;" fill="rgb(255, 255, 255)" stroke="none" stroke-width="1px">0.065</text></g><line x1="60" y1="0" x2="60" y2="177" fill="rgb(0, 0, 0)" stroke="rgb(204, 204, 204)" stroke-width="1px"></line></g></g><g transform="translate(60, 0)" clip-path="url(#clip_0)"><clipPath id="clip_0"><rect width="270" height="177"></rect></clipPath><g><g><g><line x1="0" y1="0" x2="0" y2="177" fill="rgb(0, 0, 0)" stroke="rgb(189, 189, 189)" stroke-width="1px" opacity="0.25"></line><line x1="30" y1="0" x2="30" y2="177" fill="rgb(0, 0, 0)" stroke="rgb(189, 189, 189)" stroke-width="1px" opacity="0.25"></line><line x1="60" y1="0" x2="60" y2="177" fill="rgb(0, 0, 0)" stroke="rgb(189, 189, 189)" stroke-width="1px" opacity="0.25"></line><line x1="90" y1="0" x2="90" y2="177" fill="rgb(0, 0, 0)" stroke="rgb(189, 189, 189)" stroke-width="1px" opacity="0.25"></line><line x1="120" y1="0" x2="120" y2="177" fill="rgb(0, 0, 0)" stroke="rgb(189, 189, 189)" stroke-width="1px" opacity="0.25"></line><line x1="150" y1="0" x2="150" y2="177" fill="rgb(0, 0, 0)" stroke="rgb(189, 189, 189)" stroke-width="1px" opacity="0.25"></line><line x1="180" y1="0" x2="180" y2="177" fill="rgb(0, 0, 0)" stroke="rgb(189, 189, 189)" stroke-width="1px" opacity="0.25"></line><line x1="210" y1="0" x2="210" y2="177" fill="rgb(0, 0, 0)" stroke="rgb(189, 189, 189)" stroke-width="1px" opacity="0.25"></line><line x1="240" y1="0" x2="240" y2="177" fill="rgb(0, 0, 0)" stroke="rgb(189, 189, 189)" stroke-width="1px" opacity="0.25"></line><line x1="270" y1="0" x2="270" y2="177" fill="rgb(0, 0, 0)" stroke="rgb(189, 189, 189)" stroke-width="1px" opacity="0.25"></line></g><g><line x1="0" y1="177" x2="270" y2="177" fill="rgb(0, 0, 0)" stroke="rgb(189, 189, 189)" stroke-width="1px" opacity="0.25"></line><line x1="0" y1="160.9090909090909" x2="270" y2="160.9090909090909" fill="rgb(0, 0, 0)" stroke="rgb(189, 189, 189)" stroke-width="1px" opacity="0.25"></line><line x1="0" y1="144.8181818181818" x2="270" y2="144.8181818181818" fill="rgb(0, 0, 0)" stroke="rgb(189, 189, 189)" stroke-width="1px" opacity="0.25"></line><line x1="0" y1="128.72727272727272" x2="270" y2="128.72727272727272" fill="rgb(0, 0, 0)" stroke="rgb(189, 189, 189)" stroke-width="1px" opacity="0.25"></line><line x1="0" y1="112.63636363636365" x2="270" y2="112.63636363636365" fill="rgb(0, 0, 0)" stroke="rgb(189, 189, 189)" stroke-width="1px" opacity="0.25"></line><line x1="0" y1="96.54545454545453" x2="270" y2="96.54545454545453" fill="rgb(0, 0, 0)" stroke="rgb(189, 189, 189)" stroke-width="1px" opacity="0.25"></line><line x1="0" y1="80.45454545454547" x2="270" y2="80.45454545454547" fill="rgb(0, 0, 0)" stroke="rgb(189, 189, 189)" stroke-width="1px" opacity="0.25"></line><line x1="0" y1="64.36363636363639" x2="270" y2="64.36363636363639" fill="rgb(0, 0, 0)" stroke="rgb(189, 189, 189)" stroke-width="1px" opacity="0.25"></line><line x1="0" y1="48.272727272727266" x2="270" y2="48.272727272727266" fill="rgb(0, 0, 0)" stroke="rgb(189, 189, 189)" stroke-width="1px" opacity="0.25"></line><line x1="0" y1="32.181818181818194" x2="270" y2="32.181818181818194" fill="rgb(0, 0, 0)" stroke="rgb(189, 189, 189)" stroke-width="1px" opacity="0.25"></line><line x1="0" y1="16.090909090909097" x2="270" y2="16.090909090909097" fill="rgb(0, 0, 0)" stroke="rgb(189, 189, 189)" stroke-width="1px" opacity="0.25"></line><line x1="0" y1="0" x2="270" y2="0" fill="rgb(0, 0, 0)" stroke="rgb(189, 189, 189)" stroke-width="1px" opacity="0.25"></line></g></g></g><g><g><line x1="0" y1="209.1818181818182" x2="270" y2="209.1818181818182" fill="rgb(0, 0, 0)" stroke="rgb(153, 153, 153)" stroke-width="1.5px"></line></g></g><g><g><line x1="30" y1="0" x2="30" y2="177" fill="rgb(0, 0, 0)" stroke="rgb(153, 153, 153)" stroke-width="1.5px"></line></g></g><g><g><g><g><g><path stroke="rgb(0, 119, 187)" stroke-width="2px" d="M36,-22.074418222307056L38.99999999999999,35.47997366028395L42,11.412568509640778L45,55.91941949705925L48,99.91648532968655L51,126.22231918893334L54,123.54985595319035L57,116.55269817400283L60,131.47576794341649L63,148.96638680996486L66,158.65984303149324L69,164.4343068074557L72,163.03993938296045L75,158.38652094278712L77.99999999999999,173.75853183853351L81,180.36876328551492L84,164.24271334997738L87,155.26513263683498L90,173.32849400632156L93,178.81019884674888L96,89.94197064018329L99,112.43139743716864L102,135.71642874302583L105,140.12471691666178L108,165.36528425868323L111,180.4649749156977L117,193.04032101129607L120,63.14794674782881L123,105.60511653825516L126,137.5066027289643L129,146.93418492758835L132,153.42202907587145L135,158.02328817422907L138,149.85447956856595L141,165.45100813466283L144,154.74628559780342L147,164.2463583349048L150,63.590981451428284L153,106.14989217212461L155.99999999999997,130.7590989045721L159,128.41893575040763L162,139.54003992246732L165,58.59766273223392L168,104.74953901818697L171,138.01981920231088L174,153.20623146994186L177,162.30691978425963L180,76.48120428390662L183,97.77700735604508L186,119.8103065421929L189,147.02838389897082L192,160.52501961918134L195,173.28717482437054L198,164.27395418819472L201,61.96168763793482L204,87.419445962218L207,113.44513217403708L210,133.47923364516683L213,128.12620821760044L216,146.38297945603767L219,160.75148372910002L222,149.5944837920651L225,135.41306020737036L228,132.36061755642228L231,152.81229487932504L234,161.8641298628095L237,77.72748277500907L240,16.70647319288256L243,54.848957661305356L246,2.901249597216669L249.00000000000003,-18.28626785456074L252,65.56522831384795L255,114.91651098820786L258,18.82334976511946L261,81.638137696437" style="fill: none;" fill="none"></path></g><g><path stroke="rgb(255, 112, 67)" stroke-width="2px" d="M30,27.19677783413368L33,21.247127324004044L36,12.909087411160801L38.99999999999999,21.26026967380019L42,35.30507239033978L45,43.63228542436509L48,58.39598814104612L51,80.7755510784732L54,98.4211260427099L57,105.47419183288704L60,110.29178039775672L63,113.00897362746876L66,115.63826731961571L69,124.31728960131477L72,133.60062942846963L75,142.11306837209065L77.99999999999999,143.65749548777444L81,146.79355610519866L84,142.11350126129557L87,147.43896030222487L90,146.79138506186163L93,156.00051628721198L96,155.88255694709454L99,152.21739634690837L102,150.4437227714623L105,157.00065863770192L108,160.48290113995188L111,159.16756310658292L114,155.0908432204386L117,158.70656497887856L120,137.34033247958558L123,124.23326971385673L126,127.01824234790159L129,140.57840337890568L132,135.35800366743103L135,135.86755724347728L138,133.09220096190973L141,138.38837856770385L144,137.62580769863658L147,139.61472419857046L150,143.31729855430677L153,142.7381072113209L155.99999999999997,144.5553034915656L159,146.84932363623258L162,149.14071756220525L165,148.66745858719614L168,147.1895643914479L171,135.85586268059316L174,134.91793648267205L177,137.4697439093734L180,131.72561223294332L183,135.47624083208282L186,136.36530547755552L189,135.44537321686298L192,139.43345283625325L195,137.12307197166257L198,136.90149156583462L201,139.22476590528535L204,128.16326888767006L207,136.00427633526056L210,137.87188154731206L213,133.85125344938257L216,135.86314585772885L219,134.12448734079982L222,133.84424345568473L225,134.1754296718035L228,138.1233339346427L231,133.5320806346523L234,135.94362653474406L237,140.0448365390216L240,138.8010037952069L243,136.57622884375093L246,129.8951377631776L249.00000000000003,135.76856175973782L252,140.39449883215127L255,134.5907159468464L258,128.08175516361675L261,131.47949244140574" style="fill: none;" fill="none"></path></g></g></g></g><g opacity="0.2"><g><g><g><path stroke="rgb(0, 119, 187)" stroke-width="2px" d="M33,-35.60358358513227L36,10.717343557964673L38.99999999999999,103.16393851421095L42,-20.00983565503902L45,117.48841687901452L48,162.83299342339689L51,164.57647749172017L54,119.60849177972838L57,106.16273434866558L60,153.72502145306632L63,175.1071319343014L66,173.1683765473691L69,173.08468969572675L72,160.95002727278253L75,151.4096752337434L77.99999999999999,196.81004326231778L81,190.28243211893871L84,140.0560950880701L87,141.79958215355873L90,200.42254542288453L96,-43.35861712152309L99,146.16527122394606L102,170.64381020177495L105,146.73713037778032L108,203.22607068802148L120,-131.69057157364762L123,169.29086277633905L126,185.35882820663124L129,161.07555755024606L132,163.15379501946947L135,164.9251767031171L138,137.6012667864561L141,188.84580083902588L144,138.6892018521374L147,178.49646740880877L150,-87.39208367196L153,169.9882582019676L155.99999999999997,167.67290898547932L159,124.90869102017447L162,156.22169617766684L165,-62.8159030404958L168,173.97735344279897L171,187.9252394766293L174,175.98584987087682L177,175.95795225555247L180,-52.257368965582444L183,129.72071196409792L186,152.86025532131845L189,187.85549993406644L195,192.4304076321423L198,150.75412323393604L201,-91.50671218742026L204,125.60608344863763L207,152.48366149176252L210,163.53038585186005L213,120.09667007625103L216,173.76813631369308L219,182.3042401386933L222,132.85898388651285L225,114.14092483032833L228,127.78195358000018L231,183.4898108636791L234,175.44188233803618L237,-48.477487856691546L240,-74.82504118030724L243,112.06268436393954L246,-75.0203124989163L258,-125.31639206951317L261,175.86031959341332" style="fill: none;" fill="none"></path></g><g><path stroke="rgb(255, 112, 67)" stroke-width="2px" d="M30,27.19677783413368L33,17.67733701792631L36,4.904569094831302L38.99999999999999,31.081260014664046L42,53.641966817053884L45,55.1518188471144L48,79.50831924514338L51,113.40516868504612L54,124.44492163847795L57,115.94717253880069L60,117.47446807135235L63,117.06997662647203L66,119.57362275773829L69,137.31881991570646L72,147.51472695171833L75,154.87572315606204L77.99999999999999,145.97348261150447L81,151.496850785884L84,135.09413195469162L87,155.4266620955684L90,145.82005771588194L93,169.8139100948518L96,155.70562026581982L99,146.71969886395064L102,147.7832250148058L105,166.83603447472507L108,165.7062559832226L111,157.19455807588318L114,148.97576714645731L117,164.13014561818406L120,105.29099081592128L123,104.57267817313021L126,131.19570096649906L129,160.91864395412532L132,127.52740432457492L135,136.63188759440726L138,128.9291665824977L141,146.33264492723075L144,136.48195139928296L147,142.59809894182465L150,148.87116008048707L153,141.86932019753888L155.99999999999997,147.28109791062096L159,150.29035385223952L162,152.5778084505688L165,147.95757012475622L168,144.97272309796378L171,118.85531011494724L174,133.51104718582198L177,141.2974550493739L180,123.10941471836783L183,141.10218373076484L186,137.69890244576064L189,134.06547482582656L192,145.4155722653324L195,133.65750067477876L198,136.5691209570928L201,142.70967741446063L204,111.57102336124942L207,147.76578750664538L210,140.67328936538914L213,127.8203113024885L216,138.88098447024822L219,131.5164995654063L222,133.42387762801215L225,134.67220899598166L228,144.04519032890147L231,126.64520068466663L234,139.5609453848817L237,146.1966515454379L240,136.9352546794848L243,133.23906641656703L246,119.87350114231761L249.00000000000003,144.57869775457814L252,147.33340444077146L255,125.88504161888903L258,118.31831398877232L261,136.57609835808927" style="fill: none;" fill="none"></path></g></g></g></g></g></g><g transform="translate(60, 177)" clip-path="url(#clip_1)"><clipPath id="clip_1"><rect width="270" height="23"></rect></clipPath><g><g><line x1="0" y1="0" x2="0" y2="5" style="visibility: inherit;" fill="rgb(0, 0, 0)" stroke="rgb(204, 204, 204)" stroke-width="1px"></line><line x1="30" y1="0" x2="30" y2="5" style="visibility: inherit;" fill="rgb(0, 0, 0)" stroke="rgb(204, 204, 204)" stroke-width="1px"></line><line x1="60" y1="0" x2="60" y2="5" style="visibility: inherit;" fill="rgb(0, 0, 0)" stroke="rgb(204, 204, 204)" stroke-width="1px"></line><line x1="90" y1="0" x2="90" y2="5" style="visibility: inherit;" fill="rgb(0, 0, 0)" stroke="rgb(204, 204, 204)" stroke-width="1px"></line><line x1="120" y1="0" x2="120" y2="5" style="visibility: inherit;" fill="rgb(0, 0, 0)" stroke="rgb(204, 204, 204)" stroke-width="1px"></line><line x1="150" y1="0" x2="150" y2="5" style="visibility: inherit;" fill="rgb(0, 0, 0)" stroke="rgb(204, 204, 204)" stroke-width="1px"></line><line x1="180" y1="0" x2="180" y2="5" style="visibility: inherit;" fill="rgb(0, 0, 0)" stroke="rgb(204, 204, 204)" stroke-width="1px"></line><line x1="210" y1="0" x2="210" y2="5" style="visibility: inherit;" fill="rgb(0, 0, 0)" stroke="rgb(204, 204, 204)" stroke-width="1px"></line><line x1="240" y1="0" x2="240" y2="5" style="visibility: inherit;" fill="rgb(0, 0, 0)" stroke="rgb(204, 204, 204)" stroke-width="1px"></line><line x1="270" y1="0" x2="270" y2="5" style="visibility: inherit;" fill="rgb(0, 0, 0)" stroke="rgb(204, 204, 204)" stroke-width="1px"></line></g><g transform="translate(0, 8)"><text x="0" y="0" dx="0em" dy="0.95em" style="text-anchor: middle; visibility: hidden; font-family: Roboto, sans-serif; font-size: 12px; font-weight: 200;" fill="rgb(255, 255, 255)" stroke="none" stroke-width="1px">-10</text><text x="30" y="0" dx="0em" dy="0.95em" style="text-anchor: middle; visibility: inherit; font-family: Roboto, sans-serif; font-size: 12px; font-weight: 200;" fill="rgb(255, 255, 255)" stroke="none" stroke-width="1px">0</text><text x="60" y="0" dx="0em" dy="0.95em" style="text-anchor: middle; visibility: inherit; font-family: Roboto, sans-serif; font-size: 12px; font-weight: 200;" fill="rgb(255, 255, 255)" stroke="none" stroke-width="1px">10</text><text x="90" y="0" dx="0em" dy="0.95em" style="text-anchor: middle; visibility: inherit; font-family: Roboto, sans-serif; font-size: 12px; font-weight: 200;" fill="rgb(255, 255, 255)" stroke="none" stroke-width="1px">20</text><text x="120" y="0" dx="0em" dy="0.95em" style="text-anchor: middle; visibility: inherit; font-family: Roboto, sans-serif; font-size: 12px; font-weight: 200;" fill="rgb(255, 255, 255)" stroke="none" stroke-width="1px">30</text><text x="150" y="0" dx="0em" dy="0.95em" style="text-anchor: middle; visibility: inherit; font-family: Roboto, sans-serif; font-size: 12px; font-weight: 200;" fill="rgb(255, 255, 255)" stroke="none" stroke-width="1px">40</text><text x="180" y="0" dx="0em" dy="0.95em" style="text-anchor: middle; visibility: inherit; font-family: Roboto, sans-serif; font-size: 12px; font-weight: 200;" fill="rgb(255, 255, 255)" stroke="none" stroke-width="1px">50</text><text x="210" y="0" dx="0em" dy="0.95em" style="text-anchor: middle; visibility: inherit; font-family: Roboto, sans-serif; font-size: 12px; font-weight: 200;" fill="rgb(255, 255, 255)" stroke="none" stroke-width="1px">60</text><text x="240" y="0" dx="0em" dy="0.95em" style="text-anchor: middle; visibility: inherit; font-family: Roboto, sans-serif; font-size: 12px; font-weight: 200;" fill="rgb(255, 255, 255)" stroke="none" stroke-width="1px">70</text><text x="270" y="0" dx="0em" dy="0.95em" style="text-anchor: middle; visibility: hidden; font-family: Roboto, sans-serif; font-size: 12px; font-weight: 200;" fill="rgb(255, 255, 255)" stroke="none" stroke-width="1px">80</text></g><line x1="0" y1="0" x2="270" y2="0" fill="rgb(0, 0, 0)" stroke="rgb(204, 204, 204)" stroke-width="1px"></line></g></g></g></g></svg>